M48
; DRILL file {KiCad 8.0.6} date 2024-10-28T16:54:04-0600
; FORMAT={-:-/ absolute / inch / decimal}
; #@! TF.CreationDate,2024-10-28T16:54:04-06:00
; #@! TF.GenerationSoftware,Kicad,Pcbnew,8.0.6
; #@! TF.FileFunction,Plated,1,2,PTH
FMAT,2
INCH
; #@! TA.AperFunction,Plated,PTH,ViaDrill
T1C0.0118
; #@! TA.AperFunction,Plated,PTH,ComponentDrill
T2C0.0197
; #@! TA.AperFunction,Plated,PTH,ComponentDrill
T3C0.0374
; #@! TA.AperFunction,Plated,PTH,ComponentDrill
T4C0.0984
%
G90
G05
T1
X4.3965Y-2.5575
X4.4374Y-3.2567
X4.5957Y-2.4835
X4.6618Y-3.4673
X4.6882Y-2.1992
X4.7594Y-2.5118
X4.7602Y-3.1614
X4.8063Y-2.55
X5.0402Y-2.1819
X5.0437Y-3.1622
X5.174Y-3.2555
X5.3539Y-3.1642
X5.4598Y-3.2276
X5.5193Y-2.3409
X5.7193Y-2.9232
X5.7386Y-2.6193
T3
X4.9213Y-3.4331
X5.0197Y-3.4331
X5.1181Y-3.4331
X5.2165Y-3.4331
X5.315Y-3.4331
T4
X4.4488Y-2.0866
X4.4488Y-3.4252
X5.7874Y-2.0866
X5.7874Y-3.4252
T2
G00X4.9882Y-2.0161
M15
G01X4.9882Y-2.0437
M16
G05
G00X5.248Y-2.0161
M15
G01X5.248Y-2.0437
M16
G05
M30
