%TF.GenerationSoftware,KiCad,Pcbnew,8.0.6*%
%TF.CreationDate,2024-10-28T16:54:00-06:00*%
%TF.ProjectId,GPS Module,47505320-4d6f-4647-956c-652e6b696361,rev?*%
%TF.SameCoordinates,Original*%
%TF.FileFunction,Paste,Top*%
%TF.FilePolarity,Positive*%
%FSLAX46Y46*%
G04 Gerber Fmt 4.6, Leading zero omitted, Abs format (unit mm)*
G04 Created by KiCad (PCBNEW 8.0.6) date 2024-10-28 16:54:00*
%MOMM*%
%LPD*%
G01*
G04 APERTURE LIST*
G04 Aperture macros list*
%AMRoundRect*
0 Rectangle with rounded corners*
0 $1 Rounding radius*
0 $2 $3 $4 $5 $6 $7 $8 $9 X,Y pos of 4 corners*
0 Add a 4 corners polygon primitive as box body*
4,1,4,$2,$3,$4,$5,$6,$7,$8,$9,$2,$3,0*
0 Add four circle primitives for the rounded corners*
1,1,$1+$1,$2,$3*
1,1,$1+$1,$4,$5*
1,1,$1+$1,$6,$7*
1,1,$1+$1,$8,$9*
0 Add four rect primitives between the rounded corners*
20,1,$1+$1,$2,$3,$4,$5,0*
20,1,$1+$1,$4,$5,$6,$7,0*
20,1,$1+$1,$6,$7,$8,$9,0*
20,1,$1+$1,$8,$9,$2,$3,0*%
G04 Aperture macros list end*
%ADD10C,0.000100*%
%ADD11RoundRect,0.225000X-0.225000X-0.250000X0.225000X-0.250000X0.225000X0.250000X-0.225000X0.250000X0*%
%ADD12RoundRect,0.200000X0.200000X0.275000X-0.200000X0.275000X-0.200000X-0.275000X0.200000X-0.275000X0*%
%ADD13RoundRect,0.200000X-0.200000X-0.275000X0.200000X-0.275000X0.200000X0.275000X-0.200000X0.275000X0*%
%ADD14O,0.900000X1.600000*%
%ADD15RoundRect,0.250000X0.550000X0.450000X-0.550000X0.450000X-0.550000X-0.450000X0.550000X-0.450000X0*%
%ADD16RoundRect,0.250000X0.700000X0.700000X-0.700000X0.700000X-0.700000X-0.700000X0.700000X-0.700000X0*%
%ADD17RoundRect,0.100000X0.100000X0.575000X-0.100000X0.575000X-0.100000X-0.575000X0.100000X-0.575000X0*%
%ADD18RoundRect,0.150000X-0.587500X-0.150000X0.587500X-0.150000X0.587500X0.150000X-0.587500X0.150000X0*%
%ADD19RoundRect,0.243750X-0.243750X-0.456250X0.243750X-0.456250X0.243750X0.456250X-0.243750X0.456250X0*%
%ADD20RoundRect,0.200000X-0.700000X-0.200000X0.700000X-0.200000X0.700000X0.200000X-0.700000X0.200000X0*%
%ADD21RoundRect,0.237500X-0.287500X-0.237500X0.287500X-0.237500X0.287500X0.237500X-0.287500X0.237500X0*%
%ADD22RoundRect,0.225000X0.225000X0.250000X-0.225000X0.250000X-0.225000X-0.250000X0.225000X-0.250000X0*%
%ADD23RoundRect,0.218750X-0.218750X-0.256250X0.218750X-0.256250X0.218750X0.256250X-0.218750X0.256250X0*%
%ADD24RoundRect,0.225000X-0.250000X0.225000X-0.250000X-0.225000X0.250000X-0.225000X0.250000X0.225000X0*%
%ADD25R,1.050000X1.000000*%
%ADD26R,2.200000X1.050000*%
%ADD27RoundRect,0.150000X-0.512500X-0.150000X0.512500X-0.150000X0.512500X0.150000X-0.512500X0.150000X0*%
%ADD28RoundRect,0.150000X0.512500X0.150000X-0.512500X0.150000X-0.512500X-0.150000X0.512500X-0.150000X0*%
%ADD29R,4.100000X1.700000*%
G04 APERTURE END LIST*
D10*
%TO.C,BT1*%
X142270000Y-55740000D02*
X139870000Y-53340000D01*
X142270000Y-53340000D01*
X142270000Y-55740000D01*
G36*
X142270000Y-55740000D02*
G01*
X139870000Y-53340000D01*
X142270000Y-53340000D01*
X142270000Y-55740000D01*
G37*
%TD*%
D11*
%TO.C,C2*%
X133555000Y-60660000D03*
X135105000Y-60660000D03*
%TD*%
D12*
%TO.C,R1*%
X141605000Y-63520000D03*
X139955000Y-63520000D03*
%TD*%
D13*
%TO.C,R8*%
X147165000Y-72680000D03*
X148815000Y-72680000D03*
%TD*%
D14*
%TO.C,J2*%
X126700000Y-51560000D03*
D15*
X126800000Y-54010000D03*
D16*
X128800000Y-51560000D03*
X131200000Y-51560000D03*
D15*
X133200000Y-54010000D03*
D14*
X133300000Y-51560000D03*
D17*
X128700000Y-54235000D03*
X129350000Y-54235000D03*
X130000000Y-54235000D03*
X130650000Y-54235000D03*
X131300000Y-54235000D03*
%TD*%
D12*
%TO.C,R6*%
X144755000Y-60560000D03*
X143105000Y-60560000D03*
%TD*%
D18*
%TO.C,Q2*%
X141572500Y-74170000D03*
X141572500Y-76070000D03*
X143447500Y-75120000D03*
%TD*%
D19*
%TO.C,D2*%
X113542500Y-59600000D03*
X115417500Y-59600000D03*
%TD*%
D11*
%TO.C,C3*%
X119225000Y-68980000D03*
X120775000Y-68980000D03*
%TD*%
%TO.C,C4*%
X119225000Y-66260000D03*
X120775000Y-66260000D03*
%TD*%
D12*
%TO.C,R5*%
X120405000Y-72560000D03*
X118755000Y-72560000D03*
%TD*%
D20*
%TO.C,U1*%
X136000000Y-63000000D03*
X136000000Y-64100000D03*
X136000000Y-65200000D03*
X136000000Y-66300000D03*
X136000000Y-67400000D03*
X136000000Y-68500000D03*
X136000000Y-69600000D03*
X136000000Y-72600000D03*
X136000000Y-73700000D03*
X136000000Y-74800000D03*
X136000000Y-75900000D03*
X136000000Y-77000000D03*
X124000000Y-77000000D03*
X124000000Y-75900000D03*
X124000000Y-74800000D03*
X124000000Y-73700000D03*
X124000000Y-72600000D03*
X124000000Y-69600000D03*
X124000000Y-68500000D03*
X124000000Y-67400000D03*
X124000000Y-66300000D03*
X124000000Y-65200000D03*
X124000000Y-64100000D03*
X124000000Y-63000000D03*
%TD*%
D21*
%TO.C,Pwr1*%
X147145000Y-81650000D03*
X148895000Y-81650000D03*
%TD*%
D22*
%TO.C,C6*%
X113245000Y-68970000D03*
X111695000Y-68970000D03*
%TD*%
D13*
%TO.C,R4*%
X144135000Y-72670000D03*
X145785000Y-72670000D03*
%TD*%
D23*
%TO.C,L1*%
X118782500Y-74360000D03*
X120357500Y-74360000D03*
%TD*%
D19*
%TO.C,D3*%
X146812500Y-60580000D03*
X148687500Y-60580000D03*
%TD*%
D13*
%TO.C,R3*%
X144095000Y-65160000D03*
X145745000Y-65160000D03*
%TD*%
D12*
%TO.C,R2*%
X141605000Y-70880000D03*
X139955000Y-70880000D03*
%TD*%
D24*
%TO.C,C1*%
X119090000Y-78165000D03*
X119090000Y-79715000D03*
%TD*%
D21*
%TO.C,PPS1*%
X147145000Y-78620000D03*
X148895000Y-78620000D03*
%TD*%
D25*
%TO.C,J1*%
X115775000Y-75970000D03*
D26*
X114250000Y-77445000D03*
X114250000Y-74495000D03*
%TD*%
D27*
%TO.C,U2*%
X120342500Y-54897500D03*
X120342500Y-55847500D03*
X120342500Y-56797500D03*
X122617500Y-56797500D03*
X122617500Y-55847500D03*
X122617500Y-54897500D03*
%TD*%
D22*
%TO.C,C5*%
X113245000Y-66260000D03*
X111695000Y-66260000D03*
%TD*%
D19*
%TO.C,D1*%
X115437500Y-63080000D03*
X113562500Y-63080000D03*
%TD*%
D13*
%TO.C,R7*%
X147145000Y-75510000D03*
X148795000Y-75510000D03*
%TD*%
D18*
%TO.C,Q3*%
X141562500Y-79600000D03*
X141562500Y-81500000D03*
X143437500Y-80550000D03*
%TD*%
D28*
%TO.C,U3*%
X117437500Y-68262500D03*
X117437500Y-67312500D03*
X117437500Y-66362500D03*
X115162500Y-66362500D03*
X115162500Y-68262500D03*
%TD*%
D29*
%TO.C,BT1*%
X140220000Y-57890000D03*
%TD*%
D18*
%TO.C,Q1*%
X141562500Y-66650000D03*
X141562500Y-68550000D03*
X143437500Y-67600000D03*
%TD*%
M02*
