%TF.GenerationSoftware,KiCad,Pcbnew,8.0.6*%
%TF.CreationDate,2024-10-28T16:54:01-06:00*%
%TF.ProjectId,GPS Module,47505320-4d6f-4647-956c-652e6b696361,rev?*%
%TF.SameCoordinates,Original*%
%TF.FileFunction,Legend,Bot*%
%TF.FilePolarity,Positive*%
%FSLAX46Y46*%
G04 Gerber Fmt 4.6, Leading zero omitted, Abs format (unit mm)*
G04 Created by KiCad (PCBNEW 8.0.6) date 2024-10-28 16:54:01*
%MOMM*%
%LPD*%
G01*
G04 APERTURE LIST*
%ADD10C,0.177800*%
%ADD11C,0.300000*%
G04 APERTURE END LIST*
D10*
X135977360Y-64292958D02*
X135977360Y-64927958D01*
X135977360Y-64927958D02*
X136019693Y-65054958D01*
X136019693Y-65054958D02*
X136104360Y-65139625D01*
X136104360Y-65139625D02*
X136231360Y-65181958D01*
X136231360Y-65181958D02*
X136316027Y-65181958D01*
X135596360Y-65139625D02*
X135511694Y-65181958D01*
X135511694Y-65181958D02*
X135342360Y-65181958D01*
X135342360Y-65181958D02*
X135257694Y-65139625D01*
X135257694Y-65139625D02*
X135215360Y-65054958D01*
X135215360Y-65054958D02*
X135215360Y-65012625D01*
X135215360Y-65012625D02*
X135257694Y-64927958D01*
X135257694Y-64927958D02*
X135342360Y-64885625D01*
X135342360Y-64885625D02*
X135469360Y-64885625D01*
X135469360Y-64885625D02*
X135554027Y-64843291D01*
X135554027Y-64843291D02*
X135596360Y-64758625D01*
X135596360Y-64758625D02*
X135596360Y-64716291D01*
X135596360Y-64716291D02*
X135554027Y-64631625D01*
X135554027Y-64631625D02*
X135469360Y-64589291D01*
X135469360Y-64589291D02*
X135342360Y-64589291D01*
X135342360Y-64589291D02*
X135257694Y-64631625D01*
X134961360Y-64589291D02*
X134622693Y-64589291D01*
X134834360Y-64292958D02*
X134834360Y-65054958D01*
X134834360Y-65054958D02*
X134792027Y-65139625D01*
X134792027Y-65139625D02*
X134707360Y-65181958D01*
X134707360Y-65181958D02*
X134622693Y-65181958D01*
X133945360Y-65181958D02*
X133945360Y-64716291D01*
X133945360Y-64716291D02*
X133987693Y-64631625D01*
X133987693Y-64631625D02*
X134072360Y-64589291D01*
X134072360Y-64589291D02*
X134241693Y-64589291D01*
X134241693Y-64589291D02*
X134326360Y-64631625D01*
X133945360Y-65139625D02*
X134030027Y-65181958D01*
X134030027Y-65181958D02*
X134241693Y-65181958D01*
X134241693Y-65181958D02*
X134326360Y-65139625D01*
X134326360Y-65139625D02*
X134368693Y-65054958D01*
X134368693Y-65054958D02*
X134368693Y-64970291D01*
X134368693Y-64970291D02*
X134326360Y-64885625D01*
X134326360Y-64885625D02*
X134241693Y-64843291D01*
X134241693Y-64843291D02*
X134030027Y-64843291D01*
X134030027Y-64843291D02*
X133945360Y-64800958D01*
X133564360Y-65139625D02*
X133479694Y-65181958D01*
X133479694Y-65181958D02*
X133310360Y-65181958D01*
X133310360Y-65181958D02*
X133225694Y-65139625D01*
X133225694Y-65139625D02*
X133183360Y-65054958D01*
X133183360Y-65054958D02*
X133183360Y-65012625D01*
X133183360Y-65012625D02*
X133225694Y-64927958D01*
X133225694Y-64927958D02*
X133310360Y-64885625D01*
X133310360Y-64885625D02*
X133437360Y-64885625D01*
X133437360Y-64885625D02*
X133522027Y-64843291D01*
X133522027Y-64843291D02*
X133564360Y-64758625D01*
X133564360Y-64758625D02*
X133564360Y-64716291D01*
X133564360Y-64716291D02*
X133522027Y-64631625D01*
X133522027Y-64631625D02*
X133437360Y-64589291D01*
X133437360Y-64589291D02*
X133310360Y-64589291D01*
X133310360Y-64589291D02*
X133225694Y-64631625D01*
X132802360Y-65181958D02*
X132802360Y-64292958D01*
X132421360Y-65181958D02*
X132421360Y-64716291D01*
X132421360Y-64716291D02*
X132463693Y-64631625D01*
X132463693Y-64631625D02*
X132548360Y-64589291D01*
X132548360Y-64589291D02*
X132675360Y-64589291D01*
X132675360Y-64589291D02*
X132760027Y-64631625D01*
X132760027Y-64631625D02*
X132802360Y-64673958D01*
X135723360Y-63661958D02*
X136019693Y-63238625D01*
X136231360Y-63661958D02*
X136231360Y-62772958D01*
X136231360Y-62772958D02*
X135892693Y-62772958D01*
X135892693Y-62772958D02*
X135808027Y-62815291D01*
X135808027Y-62815291D02*
X135765693Y-62857625D01*
X135765693Y-62857625D02*
X135723360Y-62942291D01*
X135723360Y-62942291D02*
X135723360Y-63069291D01*
X135723360Y-63069291D02*
X135765693Y-63153958D01*
X135765693Y-63153958D02*
X135808027Y-63196291D01*
X135808027Y-63196291D02*
X135892693Y-63238625D01*
X135892693Y-63238625D02*
X136231360Y-63238625D01*
X135003693Y-63619625D02*
X135088360Y-63661958D01*
X135088360Y-63661958D02*
X135257693Y-63661958D01*
X135257693Y-63661958D02*
X135342360Y-63619625D01*
X135342360Y-63619625D02*
X135384693Y-63534958D01*
X135384693Y-63534958D02*
X135384693Y-63196291D01*
X135384693Y-63196291D02*
X135342360Y-63111625D01*
X135342360Y-63111625D02*
X135257693Y-63069291D01*
X135257693Y-63069291D02*
X135088360Y-63069291D01*
X135088360Y-63069291D02*
X135003693Y-63111625D01*
X135003693Y-63111625D02*
X134961360Y-63196291D01*
X134961360Y-63196291D02*
X134961360Y-63280958D01*
X134961360Y-63280958D02*
X135384693Y-63365625D01*
X134665027Y-63069291D02*
X134453360Y-63661958D01*
X134453360Y-63661958D02*
X134241693Y-63069291D01*
X132760027Y-63661958D02*
X133268027Y-63661958D01*
X133014027Y-63661958D02*
X133014027Y-62772958D01*
X133014027Y-62772958D02*
X133098694Y-62899958D01*
X133098694Y-62899958D02*
X133183361Y-62984625D01*
X133183361Y-62984625D02*
X133268027Y-63026958D01*
X132379027Y-63577291D02*
X132336694Y-63619625D01*
X132336694Y-63619625D02*
X132379027Y-63661958D01*
X132379027Y-63661958D02*
X132421360Y-63619625D01*
X132421360Y-63619625D02*
X132379027Y-63577291D01*
X132379027Y-63577291D02*
X132379027Y-63661958D01*
X131786361Y-62772958D02*
X131701694Y-62772958D01*
X131701694Y-62772958D02*
X131617027Y-62815291D01*
X131617027Y-62815291D02*
X131574694Y-62857625D01*
X131574694Y-62857625D02*
X131532361Y-62942291D01*
X131532361Y-62942291D02*
X131490027Y-63111625D01*
X131490027Y-63111625D02*
X131490027Y-63323291D01*
X131490027Y-63323291D02*
X131532361Y-63492625D01*
X131532361Y-63492625D02*
X131574694Y-63577291D01*
X131574694Y-63577291D02*
X131617027Y-63619625D01*
X131617027Y-63619625D02*
X131701694Y-63661958D01*
X131701694Y-63661958D02*
X131786361Y-63661958D01*
X131786361Y-63661958D02*
X131871027Y-63619625D01*
X131871027Y-63619625D02*
X131913361Y-63577291D01*
X131913361Y-63577291D02*
X131955694Y-63492625D01*
X131955694Y-63492625D02*
X131998027Y-63323291D01*
X131998027Y-63323291D02*
X131998027Y-63111625D01*
X131998027Y-63111625D02*
X131955694Y-62942291D01*
X131955694Y-62942291D02*
X131913361Y-62857625D01*
X131913361Y-62857625D02*
X131871027Y-62815291D01*
X131871027Y-62815291D02*
X131786361Y-62772958D01*
X130474027Y-62857625D02*
X130431694Y-62815291D01*
X130431694Y-62815291D02*
X130347027Y-62772958D01*
X130347027Y-62772958D02*
X130135361Y-62772958D01*
X130135361Y-62772958D02*
X130050694Y-62815291D01*
X130050694Y-62815291D02*
X130008361Y-62857625D01*
X130008361Y-62857625D02*
X129966027Y-62942291D01*
X129966027Y-62942291D02*
X129966027Y-63026958D01*
X129966027Y-63026958D02*
X130008361Y-63153958D01*
X130008361Y-63153958D02*
X130516361Y-63661958D01*
X130516361Y-63661958D02*
X129966027Y-63661958D01*
X129415694Y-62772958D02*
X129331027Y-62772958D01*
X129331027Y-62772958D02*
X129246360Y-62815291D01*
X129246360Y-62815291D02*
X129204027Y-62857625D01*
X129204027Y-62857625D02*
X129161694Y-62942291D01*
X129161694Y-62942291D02*
X129119360Y-63111625D01*
X129119360Y-63111625D02*
X129119360Y-63323291D01*
X129119360Y-63323291D02*
X129161694Y-63492625D01*
X129161694Y-63492625D02*
X129204027Y-63577291D01*
X129204027Y-63577291D02*
X129246360Y-63619625D01*
X129246360Y-63619625D02*
X129331027Y-63661958D01*
X129331027Y-63661958D02*
X129415694Y-63661958D01*
X129415694Y-63661958D02*
X129500360Y-63619625D01*
X129500360Y-63619625D02*
X129542694Y-63577291D01*
X129542694Y-63577291D02*
X129585027Y-63492625D01*
X129585027Y-63492625D02*
X129627360Y-63323291D01*
X129627360Y-63323291D02*
X129627360Y-63111625D01*
X129627360Y-63111625D02*
X129585027Y-62942291D01*
X129585027Y-62942291D02*
X129542694Y-62857625D01*
X129542694Y-62857625D02*
X129500360Y-62815291D01*
X129500360Y-62815291D02*
X129415694Y-62772958D01*
X128780693Y-62857625D02*
X128738360Y-62815291D01*
X128738360Y-62815291D02*
X128653693Y-62772958D01*
X128653693Y-62772958D02*
X128442027Y-62772958D01*
X128442027Y-62772958D02*
X128357360Y-62815291D01*
X128357360Y-62815291D02*
X128315027Y-62857625D01*
X128315027Y-62857625D02*
X128272693Y-62942291D01*
X128272693Y-62942291D02*
X128272693Y-63026958D01*
X128272693Y-63026958D02*
X128315027Y-63153958D01*
X128315027Y-63153958D02*
X128823027Y-63661958D01*
X128823027Y-63661958D02*
X128272693Y-63661958D01*
X127510693Y-63069291D02*
X127510693Y-63661958D01*
X127722360Y-62730625D02*
X127934026Y-63365625D01*
X127934026Y-63365625D02*
X127383693Y-63365625D01*
X127045026Y-63323291D02*
X126367693Y-63323291D01*
X125478692Y-63661958D02*
X125986692Y-63661958D01*
X125732692Y-63661958D02*
X125732692Y-62772958D01*
X125732692Y-62772958D02*
X125817359Y-62899958D01*
X125817359Y-62899958D02*
X125902026Y-62984625D01*
X125902026Y-62984625D02*
X125986692Y-63026958D01*
X124928359Y-62772958D02*
X124843692Y-62772958D01*
X124843692Y-62772958D02*
X124759025Y-62815291D01*
X124759025Y-62815291D02*
X124716692Y-62857625D01*
X124716692Y-62857625D02*
X124674359Y-62942291D01*
X124674359Y-62942291D02*
X124632025Y-63111625D01*
X124632025Y-63111625D02*
X124632025Y-63323291D01*
X124632025Y-63323291D02*
X124674359Y-63492625D01*
X124674359Y-63492625D02*
X124716692Y-63577291D01*
X124716692Y-63577291D02*
X124759025Y-63619625D01*
X124759025Y-63619625D02*
X124843692Y-63661958D01*
X124843692Y-63661958D02*
X124928359Y-63661958D01*
X124928359Y-63661958D02*
X125013025Y-63619625D01*
X125013025Y-63619625D02*
X125055359Y-63577291D01*
X125055359Y-63577291D02*
X125097692Y-63492625D01*
X125097692Y-63492625D02*
X125140025Y-63323291D01*
X125140025Y-63323291D02*
X125140025Y-63111625D01*
X125140025Y-63111625D02*
X125097692Y-62942291D01*
X125097692Y-62942291D02*
X125055359Y-62857625D01*
X125055359Y-62857625D02*
X125013025Y-62815291D01*
X125013025Y-62815291D02*
X124928359Y-62772958D01*
X124251025Y-63323291D02*
X123573692Y-63323291D01*
X123192691Y-62857625D02*
X123150358Y-62815291D01*
X123150358Y-62815291D02*
X123065691Y-62772958D01*
X123065691Y-62772958D02*
X122854025Y-62772958D01*
X122854025Y-62772958D02*
X122769358Y-62815291D01*
X122769358Y-62815291D02*
X122727025Y-62857625D01*
X122727025Y-62857625D02*
X122684691Y-62942291D01*
X122684691Y-62942291D02*
X122684691Y-63026958D01*
X122684691Y-63026958D02*
X122727025Y-63153958D01*
X122727025Y-63153958D02*
X123235025Y-63661958D01*
X123235025Y-63661958D02*
X122684691Y-63661958D01*
X122176691Y-63153958D02*
X122261358Y-63111625D01*
X122261358Y-63111625D02*
X122303691Y-63069291D01*
X122303691Y-63069291D02*
X122346024Y-62984625D01*
X122346024Y-62984625D02*
X122346024Y-62942291D01*
X122346024Y-62942291D02*
X122303691Y-62857625D01*
X122303691Y-62857625D02*
X122261358Y-62815291D01*
X122261358Y-62815291D02*
X122176691Y-62772958D01*
X122176691Y-62772958D02*
X122007358Y-62772958D01*
X122007358Y-62772958D02*
X121922691Y-62815291D01*
X121922691Y-62815291D02*
X121880358Y-62857625D01*
X121880358Y-62857625D02*
X121838024Y-62942291D01*
X121838024Y-62942291D02*
X121838024Y-62984625D01*
X121838024Y-62984625D02*
X121880358Y-63069291D01*
X121880358Y-63069291D02*
X121922691Y-63111625D01*
X121922691Y-63111625D02*
X122007358Y-63153958D01*
X122007358Y-63153958D02*
X122176691Y-63153958D01*
X122176691Y-63153958D02*
X122261358Y-63196291D01*
X122261358Y-63196291D02*
X122303691Y-63238625D01*
X122303691Y-63238625D02*
X122346024Y-63323291D01*
X122346024Y-63323291D02*
X122346024Y-63492625D01*
X122346024Y-63492625D02*
X122303691Y-63577291D01*
X122303691Y-63577291D02*
X122261358Y-63619625D01*
X122261358Y-63619625D02*
X122176691Y-63661958D01*
X122176691Y-63661958D02*
X122007358Y-63661958D01*
X122007358Y-63661958D02*
X121922691Y-63619625D01*
X121922691Y-63619625D02*
X121880358Y-63577291D01*
X121880358Y-63577291D02*
X121838024Y-63492625D01*
X121838024Y-63492625D02*
X121838024Y-63323291D01*
X121838024Y-63323291D02*
X121880358Y-63238625D01*
X121880358Y-63238625D02*
X121922691Y-63196291D01*
X121922691Y-63196291D02*
X122007358Y-63153958D01*
D11*
X141928632Y-60450637D02*
X141928632Y-61974637D01*
X142908346Y-60450637D02*
X142908346Y-61648065D01*
X142908346Y-61648065D02*
X142799489Y-61865780D01*
X142799489Y-61865780D02*
X142581774Y-61974637D01*
X142581774Y-61974637D02*
X142255203Y-61974637D01*
X142255203Y-61974637D02*
X142037489Y-61865780D01*
X142037489Y-61865780D02*
X141928632Y-61756922D01*
X140078060Y-60777208D02*
X139751488Y-60886065D01*
X139751488Y-60886065D02*
X139642631Y-60994922D01*
X139642631Y-60994922D02*
X139533774Y-61212637D01*
X139533774Y-61212637D02*
X139533774Y-61539208D01*
X139533774Y-61539208D02*
X139642631Y-61756922D01*
X139642631Y-61756922D02*
X139751488Y-61865780D01*
X139751488Y-61865780D02*
X139969203Y-61974637D01*
X139969203Y-61974637D02*
X140840060Y-61974637D01*
X140840060Y-61974637D02*
X140840060Y-59688637D01*
X140840060Y-59688637D02*
X140078060Y-59688637D01*
X140078060Y-59688637D02*
X139860346Y-59797494D01*
X139860346Y-59797494D02*
X139751488Y-59906351D01*
X139751488Y-59906351D02*
X139642631Y-60124065D01*
X139642631Y-60124065D02*
X139642631Y-60341780D01*
X139642631Y-60341780D02*
X139751488Y-60559494D01*
X139751488Y-60559494D02*
X139860346Y-60668351D01*
X139860346Y-60668351D02*
X140078060Y-60777208D01*
X140078060Y-60777208D02*
X140840060Y-60777208D01*
X138227488Y-61974637D02*
X138445203Y-61865780D01*
X138445203Y-61865780D02*
X138554060Y-61648065D01*
X138554060Y-61648065D02*
X138554060Y-59688637D01*
X137030059Y-61974637D02*
X137247774Y-61865780D01*
X137247774Y-61865780D02*
X137356631Y-61756922D01*
X137356631Y-61756922D02*
X137465488Y-61539208D01*
X137465488Y-61539208D02*
X137465488Y-60886065D01*
X137465488Y-60886065D02*
X137356631Y-60668351D01*
X137356631Y-60668351D02*
X137247774Y-60559494D01*
X137247774Y-60559494D02*
X137030059Y-60450637D01*
X137030059Y-60450637D02*
X136703488Y-60450637D01*
X136703488Y-60450637D02*
X136485774Y-60559494D01*
X136485774Y-60559494D02*
X136376917Y-60668351D01*
X136376917Y-60668351D02*
X136268059Y-60886065D01*
X136268059Y-60886065D02*
X136268059Y-61539208D01*
X136268059Y-61539208D02*
X136376917Y-61756922D01*
X136376917Y-61756922D02*
X136485774Y-61865780D01*
X136485774Y-61865780D02*
X136703488Y-61974637D01*
X136703488Y-61974637D02*
X137030059Y-61974637D01*
X135506059Y-61974637D02*
X134308631Y-60450637D01*
X135506059Y-60450637D02*
X134308631Y-61974637D01*
X131696060Y-61974637D02*
X131696060Y-59688637D01*
X131696060Y-59688637D02*
X130389774Y-61974637D01*
X130389774Y-61974637D02*
X130389774Y-59688637D01*
X129301203Y-60777208D02*
X128539203Y-60777208D01*
X128212631Y-61974637D02*
X129301203Y-61974637D01*
X129301203Y-61974637D02*
X129301203Y-59688637D01*
X129301203Y-59688637D02*
X128212631Y-59688637D01*
X126797488Y-59688637D02*
X126362060Y-59688637D01*
X126362060Y-59688637D02*
X126144345Y-59797494D01*
X126144345Y-59797494D02*
X125926631Y-60015208D01*
X125926631Y-60015208D02*
X125817774Y-60450637D01*
X125817774Y-60450637D02*
X125817774Y-61212637D01*
X125817774Y-61212637D02*
X125926631Y-61648065D01*
X125926631Y-61648065D02*
X126144345Y-61865780D01*
X126144345Y-61865780D02*
X126362060Y-61974637D01*
X126362060Y-61974637D02*
X126797488Y-61974637D01*
X126797488Y-61974637D02*
X127015203Y-61865780D01*
X127015203Y-61865780D02*
X127232917Y-61648065D01*
X127232917Y-61648065D02*
X127341774Y-61212637D01*
X127341774Y-61212637D02*
X127341774Y-60450637D01*
X127341774Y-60450637D02*
X127232917Y-60015208D01*
X127232917Y-60015208D02*
X127015203Y-59797494D01*
X127015203Y-59797494D02*
X126797488Y-59688637D01*
X124838060Y-61103780D02*
X123096346Y-61103780D01*
X122007774Y-61974637D02*
X122007774Y-59688637D01*
X122007774Y-59688637D02*
X121245774Y-61321494D01*
X121245774Y-61321494D02*
X120483774Y-59688637D01*
X120483774Y-59688637D02*
X120483774Y-61974637D01*
X119068631Y-60668351D02*
X119286346Y-60559494D01*
X119286346Y-60559494D02*
X119395203Y-60450637D01*
X119395203Y-60450637D02*
X119504060Y-60232922D01*
X119504060Y-60232922D02*
X119504060Y-60124065D01*
X119504060Y-60124065D02*
X119395203Y-59906351D01*
X119395203Y-59906351D02*
X119286346Y-59797494D01*
X119286346Y-59797494D02*
X119068631Y-59688637D01*
X119068631Y-59688637D02*
X118633203Y-59688637D01*
X118633203Y-59688637D02*
X118415489Y-59797494D01*
X118415489Y-59797494D02*
X118306631Y-59906351D01*
X118306631Y-59906351D02*
X118197774Y-60124065D01*
X118197774Y-60124065D02*
X118197774Y-60232922D01*
X118197774Y-60232922D02*
X118306631Y-60450637D01*
X118306631Y-60450637D02*
X118415489Y-60559494D01*
X118415489Y-60559494D02*
X118633203Y-60668351D01*
X118633203Y-60668351D02*
X119068631Y-60668351D01*
X119068631Y-60668351D02*
X119286346Y-60777208D01*
X119286346Y-60777208D02*
X119395203Y-60886065D01*
X119395203Y-60886065D02*
X119504060Y-61103780D01*
X119504060Y-61103780D02*
X119504060Y-61539208D01*
X119504060Y-61539208D02*
X119395203Y-61756922D01*
X119395203Y-61756922D02*
X119286346Y-61865780D01*
X119286346Y-61865780D02*
X119068631Y-61974637D01*
X119068631Y-61974637D02*
X118633203Y-61974637D01*
X118633203Y-61974637D02*
X118415489Y-61865780D01*
X118415489Y-61865780D02*
X118306631Y-61756922D01*
X118306631Y-61756922D02*
X118197774Y-61539208D01*
X118197774Y-61539208D02*
X118197774Y-61103780D01*
X118197774Y-61103780D02*
X118306631Y-60886065D01*
X118306631Y-60886065D02*
X118415489Y-60777208D01*
X118415489Y-60777208D02*
X118633203Y-60668351D01*
X117218060Y-61974637D02*
X117218060Y-59688637D01*
X117218060Y-59688637D02*
X115911774Y-61974637D01*
X115911774Y-61974637D02*
X115911774Y-59688637D01*
M02*
