%TF.GenerationSoftware,KiCad,Pcbnew,8.0.6*%
%TF.CreationDate,2024-10-28T16:54:01-06:00*%
%TF.ProjectId,GPS Module,47505320-4d6f-4647-956c-652e6b696361,rev?*%
%TF.SameCoordinates,Original*%
%TF.FileFunction,Legend,Top*%
%TF.FilePolarity,Positive*%
%FSLAX46Y46*%
G04 Gerber Fmt 4.6, Leading zero omitted, Abs format (unit mm)*
G04 Created by KiCad (PCBNEW 8.0.6) date 2024-10-28 16:54:01*
%MOMM*%
%LPD*%
G01*
G04 APERTURE LIST*
%ADD10C,0.203200*%
%ADD11C,0.150000*%
%ADD12C,0.187500*%
%ADD13C,0.120000*%
%ADD14C,0.127000*%
%ADD15C,0.200000*%
G04 APERTURE END LIST*
D10*
X117270445Y-81599093D02*
X117609112Y-82615093D01*
X117609112Y-82615093D02*
X117947779Y-81599093D01*
X118286445Y-82615093D02*
X118286445Y-81937760D01*
X118286445Y-81599093D02*
X118238064Y-81647474D01*
X118238064Y-81647474D02*
X118286445Y-81695855D01*
X118286445Y-81695855D02*
X118334826Y-81647474D01*
X118334826Y-81647474D02*
X118286445Y-81599093D01*
X118286445Y-81599093D02*
X118286445Y-81695855D01*
X118770255Y-81937760D02*
X118770255Y-82615093D01*
X118770255Y-82034522D02*
X118818636Y-81986141D01*
X118818636Y-81986141D02*
X118915398Y-81937760D01*
X118915398Y-81937760D02*
X119060541Y-81937760D01*
X119060541Y-81937760D02*
X119157303Y-81986141D01*
X119157303Y-81986141D02*
X119205684Y-82082903D01*
X119205684Y-82082903D02*
X119205684Y-82615093D01*
X111628826Y-71529093D02*
X112257779Y-71529093D01*
X112257779Y-71529093D02*
X111919112Y-71916141D01*
X111919112Y-71916141D02*
X112064255Y-71916141D01*
X112064255Y-71916141D02*
X112161017Y-71964522D01*
X112161017Y-71964522D02*
X112209398Y-72012903D01*
X112209398Y-72012903D02*
X112257779Y-72109665D01*
X112257779Y-72109665D02*
X112257779Y-72351570D01*
X112257779Y-72351570D02*
X112209398Y-72448332D01*
X112209398Y-72448332D02*
X112161017Y-72496713D01*
X112161017Y-72496713D02*
X112064255Y-72545093D01*
X112064255Y-72545093D02*
X111773969Y-72545093D01*
X111773969Y-72545093D02*
X111677207Y-72496713D01*
X111677207Y-72496713D02*
X111628826Y-72448332D01*
X112693207Y-72448332D02*
X112741588Y-72496713D01*
X112741588Y-72496713D02*
X112693207Y-72545093D01*
X112693207Y-72545093D02*
X112644826Y-72496713D01*
X112644826Y-72496713D02*
X112693207Y-72448332D01*
X112693207Y-72448332D02*
X112693207Y-72545093D01*
X113080255Y-71529093D02*
X113709208Y-71529093D01*
X113709208Y-71529093D02*
X113370541Y-71916141D01*
X113370541Y-71916141D02*
X113515684Y-71916141D01*
X113515684Y-71916141D02*
X113612446Y-71964522D01*
X113612446Y-71964522D02*
X113660827Y-72012903D01*
X113660827Y-72012903D02*
X113709208Y-72109665D01*
X113709208Y-72109665D02*
X113709208Y-72351570D01*
X113709208Y-72351570D02*
X113660827Y-72448332D01*
X113660827Y-72448332D02*
X113612446Y-72496713D01*
X113612446Y-72496713D02*
X113515684Y-72545093D01*
X113515684Y-72545093D02*
X113225398Y-72545093D01*
X113225398Y-72545093D02*
X113128636Y-72496713D01*
X113128636Y-72496713D02*
X113080255Y-72448332D01*
X113999493Y-71529093D02*
X114338160Y-72545093D01*
X114338160Y-72545093D02*
X114676827Y-71529093D01*
X139527779Y-82747474D02*
X139431017Y-82699093D01*
X139431017Y-82699093D02*
X139285874Y-82699093D01*
X139285874Y-82699093D02*
X139140731Y-82747474D01*
X139140731Y-82747474D02*
X139043969Y-82844236D01*
X139043969Y-82844236D02*
X138995588Y-82940998D01*
X138995588Y-82940998D02*
X138947207Y-83134522D01*
X138947207Y-83134522D02*
X138947207Y-83279665D01*
X138947207Y-83279665D02*
X138995588Y-83473189D01*
X138995588Y-83473189D02*
X139043969Y-83569951D01*
X139043969Y-83569951D02*
X139140731Y-83666713D01*
X139140731Y-83666713D02*
X139285874Y-83715093D01*
X139285874Y-83715093D02*
X139382636Y-83715093D01*
X139382636Y-83715093D02*
X139527779Y-83666713D01*
X139527779Y-83666713D02*
X139576160Y-83618332D01*
X139576160Y-83618332D02*
X139576160Y-83279665D01*
X139576160Y-83279665D02*
X139382636Y-83279665D01*
X140011588Y-83715093D02*
X140011588Y-82699093D01*
X140011588Y-82699093D02*
X140592160Y-83715093D01*
X140592160Y-83715093D02*
X140592160Y-82699093D01*
X141075969Y-83715093D02*
X141075969Y-82699093D01*
X141075969Y-82699093D02*
X141317874Y-82699093D01*
X141317874Y-82699093D02*
X141463017Y-82747474D01*
X141463017Y-82747474D02*
X141559779Y-82844236D01*
X141559779Y-82844236D02*
X141608160Y-82940998D01*
X141608160Y-82940998D02*
X141656541Y-83134522D01*
X141656541Y-83134522D02*
X141656541Y-83279665D01*
X141656541Y-83279665D02*
X141608160Y-83473189D01*
X141608160Y-83473189D02*
X141559779Y-83569951D01*
X141559779Y-83569951D02*
X141463017Y-83666713D01*
X141463017Y-83666713D02*
X141317874Y-83715093D01*
X141317874Y-83715093D02*
X141075969Y-83715093D01*
D11*
X134567438Y-84379411D02*
X134519819Y-84474649D01*
X134519819Y-84474649D02*
X134519819Y-84617506D01*
X134519819Y-84617506D02*
X134567438Y-84760363D01*
X134567438Y-84760363D02*
X134662676Y-84855601D01*
X134662676Y-84855601D02*
X134757914Y-84903220D01*
X134757914Y-84903220D02*
X134948390Y-84950839D01*
X134948390Y-84950839D02*
X135091247Y-84950839D01*
X135091247Y-84950839D02*
X135281723Y-84903220D01*
X135281723Y-84903220D02*
X135376961Y-84855601D01*
X135376961Y-84855601D02*
X135472200Y-84760363D01*
X135472200Y-84760363D02*
X135519819Y-84617506D01*
X135519819Y-84617506D02*
X135519819Y-84522268D01*
X135519819Y-84522268D02*
X135472200Y-84379411D01*
X135472200Y-84379411D02*
X135424580Y-84331792D01*
X135424580Y-84331792D02*
X135091247Y-84331792D01*
X135091247Y-84331792D02*
X135091247Y-84522268D01*
X135519819Y-83903220D02*
X134519819Y-83903220D01*
X134519819Y-83903220D02*
X135519819Y-83331792D01*
X135519819Y-83331792D02*
X134519819Y-83331792D01*
X135519819Y-82855601D02*
X134519819Y-82855601D01*
X134519819Y-82855601D02*
X134519819Y-82617506D01*
X134519819Y-82617506D02*
X134567438Y-82474649D01*
X134567438Y-82474649D02*
X134662676Y-82379411D01*
X134662676Y-82379411D02*
X134757914Y-82331792D01*
X134757914Y-82331792D02*
X134948390Y-82284173D01*
X134948390Y-82284173D02*
X135091247Y-82284173D01*
X135091247Y-82284173D02*
X135281723Y-82331792D01*
X135281723Y-82331792D02*
X135376961Y-82379411D01*
X135376961Y-82379411D02*
X135472200Y-82474649D01*
X135472200Y-82474649D02*
X135519819Y-82617506D01*
X135519819Y-82617506D02*
X135519819Y-82855601D01*
X126997438Y-84389411D02*
X126949819Y-84484649D01*
X126949819Y-84484649D02*
X126949819Y-84627506D01*
X126949819Y-84627506D02*
X126997438Y-84770363D01*
X126997438Y-84770363D02*
X127092676Y-84865601D01*
X127092676Y-84865601D02*
X127187914Y-84913220D01*
X127187914Y-84913220D02*
X127378390Y-84960839D01*
X127378390Y-84960839D02*
X127521247Y-84960839D01*
X127521247Y-84960839D02*
X127711723Y-84913220D01*
X127711723Y-84913220D02*
X127806961Y-84865601D01*
X127806961Y-84865601D02*
X127902200Y-84770363D01*
X127902200Y-84770363D02*
X127949819Y-84627506D01*
X127949819Y-84627506D02*
X127949819Y-84532268D01*
X127949819Y-84532268D02*
X127902200Y-84389411D01*
X127902200Y-84389411D02*
X127854580Y-84341792D01*
X127854580Y-84341792D02*
X127521247Y-84341792D01*
X127521247Y-84341792D02*
X127521247Y-84532268D01*
X127949819Y-83913220D02*
X126949819Y-83913220D01*
X126949819Y-83913220D02*
X126949819Y-83532268D01*
X126949819Y-83532268D02*
X126997438Y-83437030D01*
X126997438Y-83437030D02*
X127045057Y-83389411D01*
X127045057Y-83389411D02*
X127140295Y-83341792D01*
X127140295Y-83341792D02*
X127283152Y-83341792D01*
X127283152Y-83341792D02*
X127378390Y-83389411D01*
X127378390Y-83389411D02*
X127426009Y-83437030D01*
X127426009Y-83437030D02*
X127473628Y-83532268D01*
X127473628Y-83532268D02*
X127473628Y-83913220D01*
X127902200Y-82960839D02*
X127949819Y-82817982D01*
X127949819Y-82817982D02*
X127949819Y-82579887D01*
X127949819Y-82579887D02*
X127902200Y-82484649D01*
X127902200Y-82484649D02*
X127854580Y-82437030D01*
X127854580Y-82437030D02*
X127759342Y-82389411D01*
X127759342Y-82389411D02*
X127664104Y-82389411D01*
X127664104Y-82389411D02*
X127568866Y-82437030D01*
X127568866Y-82437030D02*
X127521247Y-82484649D01*
X127521247Y-82484649D02*
X127473628Y-82579887D01*
X127473628Y-82579887D02*
X127426009Y-82770363D01*
X127426009Y-82770363D02*
X127378390Y-82865601D01*
X127378390Y-82865601D02*
X127330771Y-82913220D01*
X127330771Y-82913220D02*
X127235533Y-82960839D01*
X127235533Y-82960839D02*
X127140295Y-82960839D01*
X127140295Y-82960839D02*
X127045057Y-82913220D01*
X127045057Y-82913220D02*
X126997438Y-82865601D01*
X126997438Y-82865601D02*
X126949819Y-82770363D01*
X126949819Y-82770363D02*
X126949819Y-82532268D01*
X126949819Y-82532268D02*
X126997438Y-82389411D01*
X127568866Y-81960839D02*
X127568866Y-81198935D01*
X126949819Y-80865601D02*
X126949819Y-80294173D01*
X127949819Y-80579887D02*
X126949819Y-80579887D01*
X127949819Y-80056077D02*
X127283152Y-79532268D01*
X127283152Y-80056077D02*
X127949819Y-79532268D01*
D12*
X146661450Y-83637869D02*
X146661450Y-82637869D01*
X146661450Y-82637869D02*
X147042402Y-82637869D01*
X147042402Y-82637869D02*
X147137640Y-82685488D01*
X147137640Y-82685488D02*
X147185259Y-82733107D01*
X147185259Y-82733107D02*
X147232878Y-82828345D01*
X147232878Y-82828345D02*
X147232878Y-82971202D01*
X147232878Y-82971202D02*
X147185259Y-83066440D01*
X147185259Y-83066440D02*
X147137640Y-83114059D01*
X147137640Y-83114059D02*
X147042402Y-83161678D01*
X147042402Y-83161678D02*
X146661450Y-83161678D01*
X147566212Y-82637869D02*
X147804307Y-83637869D01*
X147804307Y-83637869D02*
X147994783Y-82923583D01*
X147994783Y-82923583D02*
X148185259Y-83637869D01*
X148185259Y-83637869D02*
X148423355Y-82637869D01*
X149375735Y-83637869D02*
X149042402Y-83161678D01*
X148804307Y-83637869D02*
X148804307Y-82637869D01*
X148804307Y-82637869D02*
X149185259Y-82637869D01*
X149185259Y-82637869D02*
X149280497Y-82685488D01*
X149280497Y-82685488D02*
X149328116Y-82733107D01*
X149328116Y-82733107D02*
X149375735Y-82828345D01*
X149375735Y-82828345D02*
X149375735Y-82971202D01*
X149375735Y-82971202D02*
X149328116Y-83066440D01*
X149328116Y-83066440D02*
X149280497Y-83114059D01*
X149280497Y-83114059D02*
X149185259Y-83161678D01*
X149185259Y-83161678D02*
X148804307Y-83161678D01*
D11*
X129537438Y-84389411D02*
X129489819Y-84484649D01*
X129489819Y-84484649D02*
X129489819Y-84627506D01*
X129489819Y-84627506D02*
X129537438Y-84770363D01*
X129537438Y-84770363D02*
X129632676Y-84865601D01*
X129632676Y-84865601D02*
X129727914Y-84913220D01*
X129727914Y-84913220D02*
X129918390Y-84960839D01*
X129918390Y-84960839D02*
X130061247Y-84960839D01*
X130061247Y-84960839D02*
X130251723Y-84913220D01*
X130251723Y-84913220D02*
X130346961Y-84865601D01*
X130346961Y-84865601D02*
X130442200Y-84770363D01*
X130442200Y-84770363D02*
X130489819Y-84627506D01*
X130489819Y-84627506D02*
X130489819Y-84532268D01*
X130489819Y-84532268D02*
X130442200Y-84389411D01*
X130442200Y-84389411D02*
X130394580Y-84341792D01*
X130394580Y-84341792D02*
X130061247Y-84341792D01*
X130061247Y-84341792D02*
X130061247Y-84532268D01*
X130489819Y-83913220D02*
X129489819Y-83913220D01*
X129489819Y-83913220D02*
X129489819Y-83532268D01*
X129489819Y-83532268D02*
X129537438Y-83437030D01*
X129537438Y-83437030D02*
X129585057Y-83389411D01*
X129585057Y-83389411D02*
X129680295Y-83341792D01*
X129680295Y-83341792D02*
X129823152Y-83341792D01*
X129823152Y-83341792D02*
X129918390Y-83389411D01*
X129918390Y-83389411D02*
X129966009Y-83437030D01*
X129966009Y-83437030D02*
X130013628Y-83532268D01*
X130013628Y-83532268D02*
X130013628Y-83913220D01*
X130442200Y-82960839D02*
X130489819Y-82817982D01*
X130489819Y-82817982D02*
X130489819Y-82579887D01*
X130489819Y-82579887D02*
X130442200Y-82484649D01*
X130442200Y-82484649D02*
X130394580Y-82437030D01*
X130394580Y-82437030D02*
X130299342Y-82389411D01*
X130299342Y-82389411D02*
X130204104Y-82389411D01*
X130204104Y-82389411D02*
X130108866Y-82437030D01*
X130108866Y-82437030D02*
X130061247Y-82484649D01*
X130061247Y-82484649D02*
X130013628Y-82579887D01*
X130013628Y-82579887D02*
X129966009Y-82770363D01*
X129966009Y-82770363D02*
X129918390Y-82865601D01*
X129918390Y-82865601D02*
X129870771Y-82913220D01*
X129870771Y-82913220D02*
X129775533Y-82960839D01*
X129775533Y-82960839D02*
X129680295Y-82960839D01*
X129680295Y-82960839D02*
X129585057Y-82913220D01*
X129585057Y-82913220D02*
X129537438Y-82865601D01*
X129537438Y-82865601D02*
X129489819Y-82770363D01*
X129489819Y-82770363D02*
X129489819Y-82532268D01*
X129489819Y-82532268D02*
X129537438Y-82389411D01*
X130108866Y-81960839D02*
X130108866Y-81198935D01*
X130489819Y-80151316D02*
X130013628Y-80484649D01*
X130489819Y-80722744D02*
X129489819Y-80722744D01*
X129489819Y-80722744D02*
X129489819Y-80341792D01*
X129489819Y-80341792D02*
X129537438Y-80246554D01*
X129537438Y-80246554D02*
X129585057Y-80198935D01*
X129585057Y-80198935D02*
X129680295Y-80151316D01*
X129680295Y-80151316D02*
X129823152Y-80151316D01*
X129823152Y-80151316D02*
X129918390Y-80198935D01*
X129918390Y-80198935D02*
X129966009Y-80246554D01*
X129966009Y-80246554D02*
X130013628Y-80341792D01*
X130013628Y-80341792D02*
X130013628Y-80722744D01*
X130489819Y-79817982D02*
X129823152Y-79294173D01*
X129823152Y-79817982D02*
X130489819Y-79294173D01*
X125038866Y-84963220D02*
X125038866Y-84201316D01*
X125419819Y-84582268D02*
X124657914Y-84582268D01*
X124419819Y-83867982D02*
X125419819Y-83534649D01*
X125419819Y-83534649D02*
X124419819Y-83201316D01*
X125419819Y-82867982D02*
X124753152Y-82867982D01*
X124419819Y-82867982D02*
X124467438Y-82915601D01*
X124467438Y-82915601D02*
X124515057Y-82867982D01*
X124515057Y-82867982D02*
X124467438Y-82820363D01*
X124467438Y-82820363D02*
X124419819Y-82867982D01*
X124419819Y-82867982D02*
X124515057Y-82867982D01*
X124753152Y-82391792D02*
X125419819Y-82391792D01*
X124848390Y-82391792D02*
X124800771Y-82344173D01*
X124800771Y-82344173D02*
X124753152Y-82248935D01*
X124753152Y-82248935D02*
X124753152Y-82106078D01*
X124753152Y-82106078D02*
X124800771Y-82010840D01*
X124800771Y-82010840D02*
X124896009Y-81963221D01*
X124896009Y-81963221D02*
X125419819Y-81963221D01*
D12*
X146831450Y-77637869D02*
X146831450Y-76637869D01*
X146831450Y-76637869D02*
X147212402Y-76637869D01*
X147212402Y-76637869D02*
X147307640Y-76685488D01*
X147307640Y-76685488D02*
X147355259Y-76733107D01*
X147355259Y-76733107D02*
X147402878Y-76828345D01*
X147402878Y-76828345D02*
X147402878Y-76971202D01*
X147402878Y-76971202D02*
X147355259Y-77066440D01*
X147355259Y-77066440D02*
X147307640Y-77114059D01*
X147307640Y-77114059D02*
X147212402Y-77161678D01*
X147212402Y-77161678D02*
X146831450Y-77161678D01*
X147831450Y-77637869D02*
X147831450Y-76637869D01*
X147831450Y-76637869D02*
X148212402Y-76637869D01*
X148212402Y-76637869D02*
X148307640Y-76685488D01*
X148307640Y-76685488D02*
X148355259Y-76733107D01*
X148355259Y-76733107D02*
X148402878Y-76828345D01*
X148402878Y-76828345D02*
X148402878Y-76971202D01*
X148402878Y-76971202D02*
X148355259Y-77066440D01*
X148355259Y-77066440D02*
X148307640Y-77114059D01*
X148307640Y-77114059D02*
X148212402Y-77161678D01*
X148212402Y-77161678D02*
X147831450Y-77161678D01*
X148783831Y-77590250D02*
X148926688Y-77637869D01*
X148926688Y-77637869D02*
X149164783Y-77637869D01*
X149164783Y-77637869D02*
X149260021Y-77590250D01*
X149260021Y-77590250D02*
X149307640Y-77542630D01*
X149307640Y-77542630D02*
X149355259Y-77447392D01*
X149355259Y-77447392D02*
X149355259Y-77352154D01*
X149355259Y-77352154D02*
X149307640Y-77256916D01*
X149307640Y-77256916D02*
X149260021Y-77209297D01*
X149260021Y-77209297D02*
X149164783Y-77161678D01*
X149164783Y-77161678D02*
X148974307Y-77114059D01*
X148974307Y-77114059D02*
X148879069Y-77066440D01*
X148879069Y-77066440D02*
X148831450Y-77018821D01*
X148831450Y-77018821D02*
X148783831Y-76923583D01*
X148783831Y-76923583D02*
X148783831Y-76828345D01*
X148783831Y-76828345D02*
X148831450Y-76733107D01*
X148831450Y-76733107D02*
X148879069Y-76685488D01*
X148879069Y-76685488D02*
X148974307Y-76637869D01*
X148974307Y-76637869D02*
X149212402Y-76637869D01*
X149212402Y-76637869D02*
X149355259Y-76685488D01*
D11*
X132869819Y-84953220D02*
X131869819Y-84953220D01*
X131869819Y-84953220D02*
X131869819Y-84572268D01*
X131869819Y-84572268D02*
X131917438Y-84477030D01*
X131917438Y-84477030D02*
X131965057Y-84429411D01*
X131965057Y-84429411D02*
X132060295Y-84381792D01*
X132060295Y-84381792D02*
X132203152Y-84381792D01*
X132203152Y-84381792D02*
X132298390Y-84429411D01*
X132298390Y-84429411D02*
X132346009Y-84477030D01*
X132346009Y-84477030D02*
X132393628Y-84572268D01*
X132393628Y-84572268D02*
X132393628Y-84953220D01*
X132869819Y-83953220D02*
X131869819Y-83953220D01*
X131869819Y-83953220D02*
X131869819Y-83572268D01*
X131869819Y-83572268D02*
X131917438Y-83477030D01*
X131917438Y-83477030D02*
X131965057Y-83429411D01*
X131965057Y-83429411D02*
X132060295Y-83381792D01*
X132060295Y-83381792D02*
X132203152Y-83381792D01*
X132203152Y-83381792D02*
X132298390Y-83429411D01*
X132298390Y-83429411D02*
X132346009Y-83477030D01*
X132346009Y-83477030D02*
X132393628Y-83572268D01*
X132393628Y-83572268D02*
X132393628Y-83953220D01*
X132822200Y-83000839D02*
X132869819Y-82857982D01*
X132869819Y-82857982D02*
X132869819Y-82619887D01*
X132869819Y-82619887D02*
X132822200Y-82524649D01*
X132822200Y-82524649D02*
X132774580Y-82477030D01*
X132774580Y-82477030D02*
X132679342Y-82429411D01*
X132679342Y-82429411D02*
X132584104Y-82429411D01*
X132584104Y-82429411D02*
X132488866Y-82477030D01*
X132488866Y-82477030D02*
X132441247Y-82524649D01*
X132441247Y-82524649D02*
X132393628Y-82619887D01*
X132393628Y-82619887D02*
X132346009Y-82810363D01*
X132346009Y-82810363D02*
X132298390Y-82905601D01*
X132298390Y-82905601D02*
X132250771Y-82953220D01*
X132250771Y-82953220D02*
X132155533Y-83000839D01*
X132155533Y-83000839D02*
X132060295Y-83000839D01*
X132060295Y-83000839D02*
X131965057Y-82953220D01*
X131965057Y-82953220D02*
X131917438Y-82905601D01*
X131917438Y-82905601D02*
X131869819Y-82810363D01*
X131869819Y-82810363D02*
X131869819Y-82572268D01*
X131869819Y-82572268D02*
X131917438Y-82429411D01*
X134163333Y-59589580D02*
X134115714Y-59637200D01*
X134115714Y-59637200D02*
X133972857Y-59684819D01*
X133972857Y-59684819D02*
X133877619Y-59684819D01*
X133877619Y-59684819D02*
X133734762Y-59637200D01*
X133734762Y-59637200D02*
X133639524Y-59541961D01*
X133639524Y-59541961D02*
X133591905Y-59446723D01*
X133591905Y-59446723D02*
X133544286Y-59256247D01*
X133544286Y-59256247D02*
X133544286Y-59113390D01*
X133544286Y-59113390D02*
X133591905Y-58922914D01*
X133591905Y-58922914D02*
X133639524Y-58827676D01*
X133639524Y-58827676D02*
X133734762Y-58732438D01*
X133734762Y-58732438D02*
X133877619Y-58684819D01*
X133877619Y-58684819D02*
X133972857Y-58684819D01*
X133972857Y-58684819D02*
X134115714Y-58732438D01*
X134115714Y-58732438D02*
X134163333Y-58780057D01*
X134544286Y-58780057D02*
X134591905Y-58732438D01*
X134591905Y-58732438D02*
X134687143Y-58684819D01*
X134687143Y-58684819D02*
X134925238Y-58684819D01*
X134925238Y-58684819D02*
X135020476Y-58732438D01*
X135020476Y-58732438D02*
X135068095Y-58780057D01*
X135068095Y-58780057D02*
X135115714Y-58875295D01*
X135115714Y-58875295D02*
X135115714Y-58970533D01*
X135115714Y-58970533D02*
X135068095Y-59113390D01*
X135068095Y-59113390D02*
X134496667Y-59684819D01*
X134496667Y-59684819D02*
X135115714Y-59684819D01*
X140613333Y-62614819D02*
X140280000Y-62138628D01*
X140041905Y-62614819D02*
X140041905Y-61614819D01*
X140041905Y-61614819D02*
X140422857Y-61614819D01*
X140422857Y-61614819D02*
X140518095Y-61662438D01*
X140518095Y-61662438D02*
X140565714Y-61710057D01*
X140565714Y-61710057D02*
X140613333Y-61805295D01*
X140613333Y-61805295D02*
X140613333Y-61948152D01*
X140613333Y-61948152D02*
X140565714Y-62043390D01*
X140565714Y-62043390D02*
X140518095Y-62091009D01*
X140518095Y-62091009D02*
X140422857Y-62138628D01*
X140422857Y-62138628D02*
X140041905Y-62138628D01*
X141565714Y-62614819D02*
X140994286Y-62614819D01*
X141280000Y-62614819D02*
X141280000Y-61614819D01*
X141280000Y-61614819D02*
X141184762Y-61757676D01*
X141184762Y-61757676D02*
X141089524Y-61852914D01*
X141089524Y-61852914D02*
X140994286Y-61900533D01*
X147823333Y-71704819D02*
X147490000Y-71228628D01*
X147251905Y-71704819D02*
X147251905Y-70704819D01*
X147251905Y-70704819D02*
X147632857Y-70704819D01*
X147632857Y-70704819D02*
X147728095Y-70752438D01*
X147728095Y-70752438D02*
X147775714Y-70800057D01*
X147775714Y-70800057D02*
X147823333Y-70895295D01*
X147823333Y-70895295D02*
X147823333Y-71038152D01*
X147823333Y-71038152D02*
X147775714Y-71133390D01*
X147775714Y-71133390D02*
X147728095Y-71181009D01*
X147728095Y-71181009D02*
X147632857Y-71228628D01*
X147632857Y-71228628D02*
X147251905Y-71228628D01*
X148394762Y-71133390D02*
X148299524Y-71085771D01*
X148299524Y-71085771D02*
X148251905Y-71038152D01*
X148251905Y-71038152D02*
X148204286Y-70942914D01*
X148204286Y-70942914D02*
X148204286Y-70895295D01*
X148204286Y-70895295D02*
X148251905Y-70800057D01*
X148251905Y-70800057D02*
X148299524Y-70752438D01*
X148299524Y-70752438D02*
X148394762Y-70704819D01*
X148394762Y-70704819D02*
X148585238Y-70704819D01*
X148585238Y-70704819D02*
X148680476Y-70752438D01*
X148680476Y-70752438D02*
X148728095Y-70800057D01*
X148728095Y-70800057D02*
X148775714Y-70895295D01*
X148775714Y-70895295D02*
X148775714Y-70942914D01*
X148775714Y-70942914D02*
X148728095Y-71038152D01*
X148728095Y-71038152D02*
X148680476Y-71085771D01*
X148680476Y-71085771D02*
X148585238Y-71133390D01*
X148585238Y-71133390D02*
X148394762Y-71133390D01*
X148394762Y-71133390D02*
X148299524Y-71181009D01*
X148299524Y-71181009D02*
X148251905Y-71228628D01*
X148251905Y-71228628D02*
X148204286Y-71323866D01*
X148204286Y-71323866D02*
X148204286Y-71514342D01*
X148204286Y-71514342D02*
X148251905Y-71609580D01*
X148251905Y-71609580D02*
X148299524Y-71657200D01*
X148299524Y-71657200D02*
X148394762Y-71704819D01*
X148394762Y-71704819D02*
X148585238Y-71704819D01*
X148585238Y-71704819D02*
X148680476Y-71657200D01*
X148680476Y-71657200D02*
X148728095Y-71609580D01*
X148728095Y-71609580D02*
X148775714Y-71514342D01*
X148775714Y-71514342D02*
X148775714Y-71323866D01*
X148775714Y-71323866D02*
X148728095Y-71228628D01*
X148728095Y-71228628D02*
X148680476Y-71181009D01*
X148680476Y-71181009D02*
X148585238Y-71133390D01*
X129666666Y-55514819D02*
X129666666Y-56229104D01*
X129666666Y-56229104D02*
X129619047Y-56371961D01*
X129619047Y-56371961D02*
X129523809Y-56467200D01*
X129523809Y-56467200D02*
X129380952Y-56514819D01*
X129380952Y-56514819D02*
X129285714Y-56514819D01*
X130095238Y-55610057D02*
X130142857Y-55562438D01*
X130142857Y-55562438D02*
X130238095Y-55514819D01*
X130238095Y-55514819D02*
X130476190Y-55514819D01*
X130476190Y-55514819D02*
X130571428Y-55562438D01*
X130571428Y-55562438D02*
X130619047Y-55610057D01*
X130619047Y-55610057D02*
X130666666Y-55705295D01*
X130666666Y-55705295D02*
X130666666Y-55800533D01*
X130666666Y-55800533D02*
X130619047Y-55943390D01*
X130619047Y-55943390D02*
X130047619Y-56514819D01*
X130047619Y-56514819D02*
X130666666Y-56514819D01*
X143763333Y-62444819D02*
X143430000Y-61968628D01*
X143191905Y-62444819D02*
X143191905Y-61444819D01*
X143191905Y-61444819D02*
X143572857Y-61444819D01*
X143572857Y-61444819D02*
X143668095Y-61492438D01*
X143668095Y-61492438D02*
X143715714Y-61540057D01*
X143715714Y-61540057D02*
X143763333Y-61635295D01*
X143763333Y-61635295D02*
X143763333Y-61778152D01*
X143763333Y-61778152D02*
X143715714Y-61873390D01*
X143715714Y-61873390D02*
X143668095Y-61921009D01*
X143668095Y-61921009D02*
X143572857Y-61968628D01*
X143572857Y-61968628D02*
X143191905Y-61968628D01*
X144620476Y-61444819D02*
X144430000Y-61444819D01*
X144430000Y-61444819D02*
X144334762Y-61492438D01*
X144334762Y-61492438D02*
X144287143Y-61540057D01*
X144287143Y-61540057D02*
X144191905Y-61682914D01*
X144191905Y-61682914D02*
X144144286Y-61873390D01*
X144144286Y-61873390D02*
X144144286Y-62254342D01*
X144144286Y-62254342D02*
X144191905Y-62349580D01*
X144191905Y-62349580D02*
X144239524Y-62397200D01*
X144239524Y-62397200D02*
X144334762Y-62444819D01*
X144334762Y-62444819D02*
X144525238Y-62444819D01*
X144525238Y-62444819D02*
X144620476Y-62397200D01*
X144620476Y-62397200D02*
X144668095Y-62349580D01*
X144668095Y-62349580D02*
X144715714Y-62254342D01*
X144715714Y-62254342D02*
X144715714Y-62016247D01*
X144715714Y-62016247D02*
X144668095Y-61921009D01*
X144668095Y-61921009D02*
X144620476Y-61873390D01*
X144620476Y-61873390D02*
X144525238Y-61825771D01*
X144525238Y-61825771D02*
X144334762Y-61825771D01*
X144334762Y-61825771D02*
X144239524Y-61873390D01*
X144239524Y-61873390D02*
X144191905Y-61921009D01*
X144191905Y-61921009D02*
X144144286Y-62016247D01*
X142414761Y-73270057D02*
X142319523Y-73222438D01*
X142319523Y-73222438D02*
X142224285Y-73127200D01*
X142224285Y-73127200D02*
X142081428Y-72984342D01*
X142081428Y-72984342D02*
X141986190Y-72936723D01*
X141986190Y-72936723D02*
X141890952Y-72936723D01*
X141938571Y-73174819D02*
X141843333Y-73127200D01*
X141843333Y-73127200D02*
X141748095Y-73031961D01*
X141748095Y-73031961D02*
X141700476Y-72841485D01*
X141700476Y-72841485D02*
X141700476Y-72508152D01*
X141700476Y-72508152D02*
X141748095Y-72317676D01*
X141748095Y-72317676D02*
X141843333Y-72222438D01*
X141843333Y-72222438D02*
X141938571Y-72174819D01*
X141938571Y-72174819D02*
X142129047Y-72174819D01*
X142129047Y-72174819D02*
X142224285Y-72222438D01*
X142224285Y-72222438D02*
X142319523Y-72317676D01*
X142319523Y-72317676D02*
X142367142Y-72508152D01*
X142367142Y-72508152D02*
X142367142Y-72841485D01*
X142367142Y-72841485D02*
X142319523Y-73031961D01*
X142319523Y-73031961D02*
X142224285Y-73127200D01*
X142224285Y-73127200D02*
X142129047Y-73174819D01*
X142129047Y-73174819D02*
X141938571Y-73174819D01*
X142748095Y-72270057D02*
X142795714Y-72222438D01*
X142795714Y-72222438D02*
X142890952Y-72174819D01*
X142890952Y-72174819D02*
X143129047Y-72174819D01*
X143129047Y-72174819D02*
X143224285Y-72222438D01*
X143224285Y-72222438D02*
X143271904Y-72270057D01*
X143271904Y-72270057D02*
X143319523Y-72365295D01*
X143319523Y-72365295D02*
X143319523Y-72460533D01*
X143319523Y-72460533D02*
X143271904Y-72603390D01*
X143271904Y-72603390D02*
X142700476Y-73174819D01*
X142700476Y-73174819D02*
X143319523Y-73174819D01*
X113741905Y-58404819D02*
X113741905Y-57404819D01*
X113741905Y-57404819D02*
X113980000Y-57404819D01*
X113980000Y-57404819D02*
X114122857Y-57452438D01*
X114122857Y-57452438D02*
X114218095Y-57547676D01*
X114218095Y-57547676D02*
X114265714Y-57642914D01*
X114265714Y-57642914D02*
X114313333Y-57833390D01*
X114313333Y-57833390D02*
X114313333Y-57976247D01*
X114313333Y-57976247D02*
X114265714Y-58166723D01*
X114265714Y-58166723D02*
X114218095Y-58261961D01*
X114218095Y-58261961D02*
X114122857Y-58357200D01*
X114122857Y-58357200D02*
X113980000Y-58404819D01*
X113980000Y-58404819D02*
X113741905Y-58404819D01*
X114694286Y-57500057D02*
X114741905Y-57452438D01*
X114741905Y-57452438D02*
X114837143Y-57404819D01*
X114837143Y-57404819D02*
X115075238Y-57404819D01*
X115075238Y-57404819D02*
X115170476Y-57452438D01*
X115170476Y-57452438D02*
X115218095Y-57500057D01*
X115218095Y-57500057D02*
X115265714Y-57595295D01*
X115265714Y-57595295D02*
X115265714Y-57690533D01*
X115265714Y-57690533D02*
X115218095Y-57833390D01*
X115218095Y-57833390D02*
X114646667Y-58404819D01*
X114646667Y-58404819D02*
X115265714Y-58404819D01*
X119833333Y-67909580D02*
X119785714Y-67957200D01*
X119785714Y-67957200D02*
X119642857Y-68004819D01*
X119642857Y-68004819D02*
X119547619Y-68004819D01*
X119547619Y-68004819D02*
X119404762Y-67957200D01*
X119404762Y-67957200D02*
X119309524Y-67861961D01*
X119309524Y-67861961D02*
X119261905Y-67766723D01*
X119261905Y-67766723D02*
X119214286Y-67576247D01*
X119214286Y-67576247D02*
X119214286Y-67433390D01*
X119214286Y-67433390D02*
X119261905Y-67242914D01*
X119261905Y-67242914D02*
X119309524Y-67147676D01*
X119309524Y-67147676D02*
X119404762Y-67052438D01*
X119404762Y-67052438D02*
X119547619Y-67004819D01*
X119547619Y-67004819D02*
X119642857Y-67004819D01*
X119642857Y-67004819D02*
X119785714Y-67052438D01*
X119785714Y-67052438D02*
X119833333Y-67100057D01*
X120166667Y-67004819D02*
X120785714Y-67004819D01*
X120785714Y-67004819D02*
X120452381Y-67385771D01*
X120452381Y-67385771D02*
X120595238Y-67385771D01*
X120595238Y-67385771D02*
X120690476Y-67433390D01*
X120690476Y-67433390D02*
X120738095Y-67481009D01*
X120738095Y-67481009D02*
X120785714Y-67576247D01*
X120785714Y-67576247D02*
X120785714Y-67814342D01*
X120785714Y-67814342D02*
X120738095Y-67909580D01*
X120738095Y-67909580D02*
X120690476Y-67957200D01*
X120690476Y-67957200D02*
X120595238Y-68004819D01*
X120595238Y-68004819D02*
X120309524Y-68004819D01*
X120309524Y-68004819D02*
X120214286Y-67957200D01*
X120214286Y-67957200D02*
X120166667Y-67909580D01*
X119833333Y-65189580D02*
X119785714Y-65237200D01*
X119785714Y-65237200D02*
X119642857Y-65284819D01*
X119642857Y-65284819D02*
X119547619Y-65284819D01*
X119547619Y-65284819D02*
X119404762Y-65237200D01*
X119404762Y-65237200D02*
X119309524Y-65141961D01*
X119309524Y-65141961D02*
X119261905Y-65046723D01*
X119261905Y-65046723D02*
X119214286Y-64856247D01*
X119214286Y-64856247D02*
X119214286Y-64713390D01*
X119214286Y-64713390D02*
X119261905Y-64522914D01*
X119261905Y-64522914D02*
X119309524Y-64427676D01*
X119309524Y-64427676D02*
X119404762Y-64332438D01*
X119404762Y-64332438D02*
X119547619Y-64284819D01*
X119547619Y-64284819D02*
X119642857Y-64284819D01*
X119642857Y-64284819D02*
X119785714Y-64332438D01*
X119785714Y-64332438D02*
X119833333Y-64380057D01*
X120690476Y-64618152D02*
X120690476Y-65284819D01*
X120452381Y-64237200D02*
X120214286Y-64951485D01*
X120214286Y-64951485D02*
X120833333Y-64951485D01*
X119453333Y-71694819D02*
X119120000Y-71218628D01*
X118881905Y-71694819D02*
X118881905Y-70694819D01*
X118881905Y-70694819D02*
X119262857Y-70694819D01*
X119262857Y-70694819D02*
X119358095Y-70742438D01*
X119358095Y-70742438D02*
X119405714Y-70790057D01*
X119405714Y-70790057D02*
X119453333Y-70885295D01*
X119453333Y-70885295D02*
X119453333Y-71028152D01*
X119453333Y-71028152D02*
X119405714Y-71123390D01*
X119405714Y-71123390D02*
X119358095Y-71171009D01*
X119358095Y-71171009D02*
X119262857Y-71218628D01*
X119262857Y-71218628D02*
X118881905Y-71218628D01*
X120358095Y-70694819D02*
X119881905Y-70694819D01*
X119881905Y-70694819D02*
X119834286Y-71171009D01*
X119834286Y-71171009D02*
X119881905Y-71123390D01*
X119881905Y-71123390D02*
X119977143Y-71075771D01*
X119977143Y-71075771D02*
X120215238Y-71075771D01*
X120215238Y-71075771D02*
X120310476Y-71123390D01*
X120310476Y-71123390D02*
X120358095Y-71171009D01*
X120358095Y-71171009D02*
X120405714Y-71266247D01*
X120405714Y-71266247D02*
X120405714Y-71504342D01*
X120405714Y-71504342D02*
X120358095Y-71599580D01*
X120358095Y-71599580D02*
X120310476Y-71647200D01*
X120310476Y-71647200D02*
X120215238Y-71694819D01*
X120215238Y-71694819D02*
X119977143Y-71694819D01*
X119977143Y-71694819D02*
X119881905Y-71647200D01*
X119881905Y-71647200D02*
X119834286Y-71599580D01*
X129238095Y-60454819D02*
X129238095Y-61264342D01*
X129238095Y-61264342D02*
X129285714Y-61359580D01*
X129285714Y-61359580D02*
X129333333Y-61407200D01*
X129333333Y-61407200D02*
X129428571Y-61454819D01*
X129428571Y-61454819D02*
X129619047Y-61454819D01*
X129619047Y-61454819D02*
X129714285Y-61407200D01*
X129714285Y-61407200D02*
X129761904Y-61359580D01*
X129761904Y-61359580D02*
X129809523Y-61264342D01*
X129809523Y-61264342D02*
X129809523Y-60454819D01*
X130809523Y-61454819D02*
X130238095Y-61454819D01*
X130523809Y-61454819D02*
X130523809Y-60454819D01*
X130523809Y-60454819D02*
X130428571Y-60597676D01*
X130428571Y-60597676D02*
X130333333Y-60692914D01*
X130333333Y-60692914D02*
X130238095Y-60740533D01*
X112303333Y-70759580D02*
X112255714Y-70807200D01*
X112255714Y-70807200D02*
X112112857Y-70854819D01*
X112112857Y-70854819D02*
X112017619Y-70854819D01*
X112017619Y-70854819D02*
X111874762Y-70807200D01*
X111874762Y-70807200D02*
X111779524Y-70711961D01*
X111779524Y-70711961D02*
X111731905Y-70616723D01*
X111731905Y-70616723D02*
X111684286Y-70426247D01*
X111684286Y-70426247D02*
X111684286Y-70283390D01*
X111684286Y-70283390D02*
X111731905Y-70092914D01*
X111731905Y-70092914D02*
X111779524Y-69997676D01*
X111779524Y-69997676D02*
X111874762Y-69902438D01*
X111874762Y-69902438D02*
X112017619Y-69854819D01*
X112017619Y-69854819D02*
X112112857Y-69854819D01*
X112112857Y-69854819D02*
X112255714Y-69902438D01*
X112255714Y-69902438D02*
X112303333Y-69950057D01*
X113160476Y-69854819D02*
X112970000Y-69854819D01*
X112970000Y-69854819D02*
X112874762Y-69902438D01*
X112874762Y-69902438D02*
X112827143Y-69950057D01*
X112827143Y-69950057D02*
X112731905Y-70092914D01*
X112731905Y-70092914D02*
X112684286Y-70283390D01*
X112684286Y-70283390D02*
X112684286Y-70664342D01*
X112684286Y-70664342D02*
X112731905Y-70759580D01*
X112731905Y-70759580D02*
X112779524Y-70807200D01*
X112779524Y-70807200D02*
X112874762Y-70854819D01*
X112874762Y-70854819D02*
X113065238Y-70854819D01*
X113065238Y-70854819D02*
X113160476Y-70807200D01*
X113160476Y-70807200D02*
X113208095Y-70759580D01*
X113208095Y-70759580D02*
X113255714Y-70664342D01*
X113255714Y-70664342D02*
X113255714Y-70426247D01*
X113255714Y-70426247D02*
X113208095Y-70331009D01*
X113208095Y-70331009D02*
X113160476Y-70283390D01*
X113160476Y-70283390D02*
X113065238Y-70235771D01*
X113065238Y-70235771D02*
X112874762Y-70235771D01*
X112874762Y-70235771D02*
X112779524Y-70283390D01*
X112779524Y-70283390D02*
X112731905Y-70331009D01*
X112731905Y-70331009D02*
X112684286Y-70426247D01*
X144793333Y-71754819D02*
X144460000Y-71278628D01*
X144221905Y-71754819D02*
X144221905Y-70754819D01*
X144221905Y-70754819D02*
X144602857Y-70754819D01*
X144602857Y-70754819D02*
X144698095Y-70802438D01*
X144698095Y-70802438D02*
X144745714Y-70850057D01*
X144745714Y-70850057D02*
X144793333Y-70945295D01*
X144793333Y-70945295D02*
X144793333Y-71088152D01*
X144793333Y-71088152D02*
X144745714Y-71183390D01*
X144745714Y-71183390D02*
X144698095Y-71231009D01*
X144698095Y-71231009D02*
X144602857Y-71278628D01*
X144602857Y-71278628D02*
X144221905Y-71278628D01*
X145650476Y-71088152D02*
X145650476Y-71754819D01*
X145412381Y-70707200D02*
X145174286Y-71421485D01*
X145174286Y-71421485D02*
X145793333Y-71421485D01*
X117123333Y-74874819D02*
X116647143Y-74874819D01*
X116647143Y-74874819D02*
X116647143Y-73874819D01*
X117980476Y-74874819D02*
X117409048Y-74874819D01*
X117694762Y-74874819D02*
X117694762Y-73874819D01*
X117694762Y-73874819D02*
X117599524Y-74017676D01*
X117599524Y-74017676D02*
X117504286Y-74112914D01*
X117504286Y-74112914D02*
X117409048Y-74160533D01*
X147011905Y-59384819D02*
X147011905Y-58384819D01*
X147011905Y-58384819D02*
X147250000Y-58384819D01*
X147250000Y-58384819D02*
X147392857Y-58432438D01*
X147392857Y-58432438D02*
X147488095Y-58527676D01*
X147488095Y-58527676D02*
X147535714Y-58622914D01*
X147535714Y-58622914D02*
X147583333Y-58813390D01*
X147583333Y-58813390D02*
X147583333Y-58956247D01*
X147583333Y-58956247D02*
X147535714Y-59146723D01*
X147535714Y-59146723D02*
X147488095Y-59241961D01*
X147488095Y-59241961D02*
X147392857Y-59337200D01*
X147392857Y-59337200D02*
X147250000Y-59384819D01*
X147250000Y-59384819D02*
X147011905Y-59384819D01*
X147916667Y-58384819D02*
X148535714Y-58384819D01*
X148535714Y-58384819D02*
X148202381Y-58765771D01*
X148202381Y-58765771D02*
X148345238Y-58765771D01*
X148345238Y-58765771D02*
X148440476Y-58813390D01*
X148440476Y-58813390D02*
X148488095Y-58861009D01*
X148488095Y-58861009D02*
X148535714Y-58956247D01*
X148535714Y-58956247D02*
X148535714Y-59194342D01*
X148535714Y-59194342D02*
X148488095Y-59289580D01*
X148488095Y-59289580D02*
X148440476Y-59337200D01*
X148440476Y-59337200D02*
X148345238Y-59384819D01*
X148345238Y-59384819D02*
X148059524Y-59384819D01*
X148059524Y-59384819D02*
X147964286Y-59337200D01*
X147964286Y-59337200D02*
X147916667Y-59289580D01*
X144753333Y-64184819D02*
X144420000Y-63708628D01*
X144181905Y-64184819D02*
X144181905Y-63184819D01*
X144181905Y-63184819D02*
X144562857Y-63184819D01*
X144562857Y-63184819D02*
X144658095Y-63232438D01*
X144658095Y-63232438D02*
X144705714Y-63280057D01*
X144705714Y-63280057D02*
X144753333Y-63375295D01*
X144753333Y-63375295D02*
X144753333Y-63518152D01*
X144753333Y-63518152D02*
X144705714Y-63613390D01*
X144705714Y-63613390D02*
X144658095Y-63661009D01*
X144658095Y-63661009D02*
X144562857Y-63708628D01*
X144562857Y-63708628D02*
X144181905Y-63708628D01*
X145086667Y-63184819D02*
X145705714Y-63184819D01*
X145705714Y-63184819D02*
X145372381Y-63565771D01*
X145372381Y-63565771D02*
X145515238Y-63565771D01*
X145515238Y-63565771D02*
X145610476Y-63613390D01*
X145610476Y-63613390D02*
X145658095Y-63661009D01*
X145658095Y-63661009D02*
X145705714Y-63756247D01*
X145705714Y-63756247D02*
X145705714Y-63994342D01*
X145705714Y-63994342D02*
X145658095Y-64089580D01*
X145658095Y-64089580D02*
X145610476Y-64137200D01*
X145610476Y-64137200D02*
X145515238Y-64184819D01*
X145515238Y-64184819D02*
X145229524Y-64184819D01*
X145229524Y-64184819D02*
X145134286Y-64137200D01*
X145134286Y-64137200D02*
X145086667Y-64089580D01*
X139183333Y-69974819D02*
X138850000Y-69498628D01*
X138611905Y-69974819D02*
X138611905Y-68974819D01*
X138611905Y-68974819D02*
X138992857Y-68974819D01*
X138992857Y-68974819D02*
X139088095Y-69022438D01*
X139088095Y-69022438D02*
X139135714Y-69070057D01*
X139135714Y-69070057D02*
X139183333Y-69165295D01*
X139183333Y-69165295D02*
X139183333Y-69308152D01*
X139183333Y-69308152D02*
X139135714Y-69403390D01*
X139135714Y-69403390D02*
X139088095Y-69451009D01*
X139088095Y-69451009D02*
X138992857Y-69498628D01*
X138992857Y-69498628D02*
X138611905Y-69498628D01*
X139564286Y-69070057D02*
X139611905Y-69022438D01*
X139611905Y-69022438D02*
X139707143Y-68974819D01*
X139707143Y-68974819D02*
X139945238Y-68974819D01*
X139945238Y-68974819D02*
X140040476Y-69022438D01*
X140040476Y-69022438D02*
X140088095Y-69070057D01*
X140088095Y-69070057D02*
X140135714Y-69165295D01*
X140135714Y-69165295D02*
X140135714Y-69260533D01*
X140135714Y-69260533D02*
X140088095Y-69403390D01*
X140088095Y-69403390D02*
X139516667Y-69974819D01*
X139516667Y-69974819D02*
X140135714Y-69974819D01*
X120879580Y-79106666D02*
X120927200Y-79154285D01*
X120927200Y-79154285D02*
X120974819Y-79297142D01*
X120974819Y-79297142D02*
X120974819Y-79392380D01*
X120974819Y-79392380D02*
X120927200Y-79535237D01*
X120927200Y-79535237D02*
X120831961Y-79630475D01*
X120831961Y-79630475D02*
X120736723Y-79678094D01*
X120736723Y-79678094D02*
X120546247Y-79725713D01*
X120546247Y-79725713D02*
X120403390Y-79725713D01*
X120403390Y-79725713D02*
X120212914Y-79678094D01*
X120212914Y-79678094D02*
X120117676Y-79630475D01*
X120117676Y-79630475D02*
X120022438Y-79535237D01*
X120022438Y-79535237D02*
X119974819Y-79392380D01*
X119974819Y-79392380D02*
X119974819Y-79297142D01*
X119974819Y-79297142D02*
X120022438Y-79154285D01*
X120022438Y-79154285D02*
X120070057Y-79106666D01*
X120974819Y-78154285D02*
X120974819Y-78725713D01*
X120974819Y-78439999D02*
X119974819Y-78439999D01*
X119974819Y-78439999D02*
X120117676Y-78535237D01*
X120117676Y-78535237D02*
X120212914Y-78630475D01*
X120212914Y-78630475D02*
X120260533Y-78725713D01*
X113962295Y-79346666D02*
X114533723Y-79346666D01*
X114533723Y-79346666D02*
X114648009Y-79384761D01*
X114648009Y-79384761D02*
X114724200Y-79460952D01*
X114724200Y-79460952D02*
X114762295Y-79575237D01*
X114762295Y-79575237D02*
X114762295Y-79651428D01*
X114762295Y-78546666D02*
X114762295Y-79003809D01*
X114762295Y-78775237D02*
X113962295Y-78775237D01*
X113962295Y-78775237D02*
X114076580Y-78851428D01*
X114076580Y-78851428D02*
X114152771Y-78927618D01*
X114152771Y-78927618D02*
X114190866Y-79003809D01*
X120718095Y-52902319D02*
X120718095Y-53711842D01*
X120718095Y-53711842D02*
X120765714Y-53807080D01*
X120765714Y-53807080D02*
X120813333Y-53854700D01*
X120813333Y-53854700D02*
X120908571Y-53902319D01*
X120908571Y-53902319D02*
X121099047Y-53902319D01*
X121099047Y-53902319D02*
X121194285Y-53854700D01*
X121194285Y-53854700D02*
X121241904Y-53807080D01*
X121241904Y-53807080D02*
X121289523Y-53711842D01*
X121289523Y-53711842D02*
X121289523Y-52902319D01*
X121718095Y-52997557D02*
X121765714Y-52949938D01*
X121765714Y-52949938D02*
X121860952Y-52902319D01*
X121860952Y-52902319D02*
X122099047Y-52902319D01*
X122099047Y-52902319D02*
X122194285Y-52949938D01*
X122194285Y-52949938D02*
X122241904Y-52997557D01*
X122241904Y-52997557D02*
X122289523Y-53092795D01*
X122289523Y-53092795D02*
X122289523Y-53188033D01*
X122289523Y-53188033D02*
X122241904Y-53330890D01*
X122241904Y-53330890D02*
X121670476Y-53902319D01*
X121670476Y-53902319D02*
X122289523Y-53902319D01*
X112303333Y-68049580D02*
X112255714Y-68097200D01*
X112255714Y-68097200D02*
X112112857Y-68144819D01*
X112112857Y-68144819D02*
X112017619Y-68144819D01*
X112017619Y-68144819D02*
X111874762Y-68097200D01*
X111874762Y-68097200D02*
X111779524Y-68001961D01*
X111779524Y-68001961D02*
X111731905Y-67906723D01*
X111731905Y-67906723D02*
X111684286Y-67716247D01*
X111684286Y-67716247D02*
X111684286Y-67573390D01*
X111684286Y-67573390D02*
X111731905Y-67382914D01*
X111731905Y-67382914D02*
X111779524Y-67287676D01*
X111779524Y-67287676D02*
X111874762Y-67192438D01*
X111874762Y-67192438D02*
X112017619Y-67144819D01*
X112017619Y-67144819D02*
X112112857Y-67144819D01*
X112112857Y-67144819D02*
X112255714Y-67192438D01*
X112255714Y-67192438D02*
X112303333Y-67240057D01*
X113208095Y-67144819D02*
X112731905Y-67144819D01*
X112731905Y-67144819D02*
X112684286Y-67621009D01*
X112684286Y-67621009D02*
X112731905Y-67573390D01*
X112731905Y-67573390D02*
X112827143Y-67525771D01*
X112827143Y-67525771D02*
X113065238Y-67525771D01*
X113065238Y-67525771D02*
X113160476Y-67573390D01*
X113160476Y-67573390D02*
X113208095Y-67621009D01*
X113208095Y-67621009D02*
X113255714Y-67716247D01*
X113255714Y-67716247D02*
X113255714Y-67954342D01*
X113255714Y-67954342D02*
X113208095Y-68049580D01*
X113208095Y-68049580D02*
X113160476Y-68097200D01*
X113160476Y-68097200D02*
X113065238Y-68144819D01*
X113065238Y-68144819D02*
X112827143Y-68144819D01*
X112827143Y-68144819D02*
X112731905Y-68097200D01*
X112731905Y-68097200D02*
X112684286Y-68049580D01*
X113761905Y-61884819D02*
X113761905Y-60884819D01*
X113761905Y-60884819D02*
X114000000Y-60884819D01*
X114000000Y-60884819D02*
X114142857Y-60932438D01*
X114142857Y-60932438D02*
X114238095Y-61027676D01*
X114238095Y-61027676D02*
X114285714Y-61122914D01*
X114285714Y-61122914D02*
X114333333Y-61313390D01*
X114333333Y-61313390D02*
X114333333Y-61456247D01*
X114333333Y-61456247D02*
X114285714Y-61646723D01*
X114285714Y-61646723D02*
X114238095Y-61741961D01*
X114238095Y-61741961D02*
X114142857Y-61837200D01*
X114142857Y-61837200D02*
X114000000Y-61884819D01*
X114000000Y-61884819D02*
X113761905Y-61884819D01*
X115285714Y-61884819D02*
X114714286Y-61884819D01*
X115000000Y-61884819D02*
X115000000Y-60884819D01*
X115000000Y-60884819D02*
X114904762Y-61027676D01*
X114904762Y-61027676D02*
X114809524Y-61122914D01*
X114809524Y-61122914D02*
X114714286Y-61170533D01*
X147803333Y-74534819D02*
X147470000Y-74058628D01*
X147231905Y-74534819D02*
X147231905Y-73534819D01*
X147231905Y-73534819D02*
X147612857Y-73534819D01*
X147612857Y-73534819D02*
X147708095Y-73582438D01*
X147708095Y-73582438D02*
X147755714Y-73630057D01*
X147755714Y-73630057D02*
X147803333Y-73725295D01*
X147803333Y-73725295D02*
X147803333Y-73868152D01*
X147803333Y-73868152D02*
X147755714Y-73963390D01*
X147755714Y-73963390D02*
X147708095Y-74011009D01*
X147708095Y-74011009D02*
X147612857Y-74058628D01*
X147612857Y-74058628D02*
X147231905Y-74058628D01*
X148136667Y-73534819D02*
X148803333Y-73534819D01*
X148803333Y-73534819D02*
X148374762Y-74534819D01*
X142404761Y-78700057D02*
X142309523Y-78652438D01*
X142309523Y-78652438D02*
X142214285Y-78557200D01*
X142214285Y-78557200D02*
X142071428Y-78414342D01*
X142071428Y-78414342D02*
X141976190Y-78366723D01*
X141976190Y-78366723D02*
X141880952Y-78366723D01*
X141928571Y-78604819D02*
X141833333Y-78557200D01*
X141833333Y-78557200D02*
X141738095Y-78461961D01*
X141738095Y-78461961D02*
X141690476Y-78271485D01*
X141690476Y-78271485D02*
X141690476Y-77938152D01*
X141690476Y-77938152D02*
X141738095Y-77747676D01*
X141738095Y-77747676D02*
X141833333Y-77652438D01*
X141833333Y-77652438D02*
X141928571Y-77604819D01*
X141928571Y-77604819D02*
X142119047Y-77604819D01*
X142119047Y-77604819D02*
X142214285Y-77652438D01*
X142214285Y-77652438D02*
X142309523Y-77747676D01*
X142309523Y-77747676D02*
X142357142Y-77938152D01*
X142357142Y-77938152D02*
X142357142Y-78271485D01*
X142357142Y-78271485D02*
X142309523Y-78461961D01*
X142309523Y-78461961D02*
X142214285Y-78557200D01*
X142214285Y-78557200D02*
X142119047Y-78604819D01*
X142119047Y-78604819D02*
X141928571Y-78604819D01*
X142690476Y-77604819D02*
X143309523Y-77604819D01*
X143309523Y-77604819D02*
X142976190Y-77985771D01*
X142976190Y-77985771D02*
X143119047Y-77985771D01*
X143119047Y-77985771D02*
X143214285Y-78033390D01*
X143214285Y-78033390D02*
X143261904Y-78081009D01*
X143261904Y-78081009D02*
X143309523Y-78176247D01*
X143309523Y-78176247D02*
X143309523Y-78414342D01*
X143309523Y-78414342D02*
X143261904Y-78509580D01*
X143261904Y-78509580D02*
X143214285Y-78557200D01*
X143214285Y-78557200D02*
X143119047Y-78604819D01*
X143119047Y-78604819D02*
X142833333Y-78604819D01*
X142833333Y-78604819D02*
X142738095Y-78557200D01*
X142738095Y-78557200D02*
X142690476Y-78509580D01*
X115538095Y-69167319D02*
X115538095Y-69976842D01*
X115538095Y-69976842D02*
X115585714Y-70072080D01*
X115585714Y-70072080D02*
X115633333Y-70119700D01*
X115633333Y-70119700D02*
X115728571Y-70167319D01*
X115728571Y-70167319D02*
X115919047Y-70167319D01*
X115919047Y-70167319D02*
X116014285Y-70119700D01*
X116014285Y-70119700D02*
X116061904Y-70072080D01*
X116061904Y-70072080D02*
X116109523Y-69976842D01*
X116109523Y-69976842D02*
X116109523Y-69167319D01*
X116490476Y-69167319D02*
X117109523Y-69167319D01*
X117109523Y-69167319D02*
X116776190Y-69548271D01*
X116776190Y-69548271D02*
X116919047Y-69548271D01*
X116919047Y-69548271D02*
X117014285Y-69595890D01*
X117014285Y-69595890D02*
X117061904Y-69643509D01*
X117061904Y-69643509D02*
X117109523Y-69738747D01*
X117109523Y-69738747D02*
X117109523Y-69976842D01*
X117109523Y-69976842D02*
X117061904Y-70072080D01*
X117061904Y-70072080D02*
X117014285Y-70119700D01*
X117014285Y-70119700D02*
X116919047Y-70167319D01*
X116919047Y-70167319D02*
X116633333Y-70167319D01*
X116633333Y-70167319D02*
X116538095Y-70119700D01*
X116538095Y-70119700D02*
X116490476Y-70072080D01*
X120466666Y-86774819D02*
X120466666Y-87489104D01*
X120466666Y-87489104D02*
X120419047Y-87631961D01*
X120419047Y-87631961D02*
X120323809Y-87727200D01*
X120323809Y-87727200D02*
X120180952Y-87774819D01*
X120180952Y-87774819D02*
X120085714Y-87774819D01*
X120847619Y-86774819D02*
X121466666Y-86774819D01*
X121466666Y-86774819D02*
X121133333Y-87155771D01*
X121133333Y-87155771D02*
X121276190Y-87155771D01*
X121276190Y-87155771D02*
X121371428Y-87203390D01*
X121371428Y-87203390D02*
X121419047Y-87251009D01*
X121419047Y-87251009D02*
X121466666Y-87346247D01*
X121466666Y-87346247D02*
X121466666Y-87584342D01*
X121466666Y-87584342D02*
X121419047Y-87679580D01*
X121419047Y-87679580D02*
X121371428Y-87727200D01*
X121371428Y-87727200D02*
X121276190Y-87774819D01*
X121276190Y-87774819D02*
X120990476Y-87774819D01*
X120990476Y-87774819D02*
X120895238Y-87727200D01*
X120895238Y-87727200D02*
X120847619Y-87679580D01*
X139104262Y-51239871D02*
X139304582Y-51306645D01*
X139304582Y-51306645D02*
X139371356Y-51373418D01*
X139371356Y-51373418D02*
X139438129Y-51506965D01*
X139438129Y-51506965D02*
X139438129Y-51707286D01*
X139438129Y-51707286D02*
X139371356Y-51840833D01*
X139371356Y-51840833D02*
X139304582Y-51907607D01*
X139304582Y-51907607D02*
X139171035Y-51974380D01*
X139171035Y-51974380D02*
X138636847Y-51974380D01*
X138636847Y-51974380D02*
X138636847Y-50572136D01*
X138636847Y-50572136D02*
X139104262Y-50572136D01*
X139104262Y-50572136D02*
X139237809Y-50638910D01*
X139237809Y-50638910D02*
X139304582Y-50705683D01*
X139304582Y-50705683D02*
X139371356Y-50839230D01*
X139371356Y-50839230D02*
X139371356Y-50972777D01*
X139371356Y-50972777D02*
X139304582Y-51106324D01*
X139304582Y-51106324D02*
X139237809Y-51173098D01*
X139237809Y-51173098D02*
X139104262Y-51239871D01*
X139104262Y-51239871D02*
X138636847Y-51239871D01*
X139838771Y-50572136D02*
X140640053Y-50572136D01*
X140239412Y-51974380D02*
X140239412Y-50572136D01*
X141841976Y-51974380D02*
X141040694Y-51974380D01*
X141441335Y-51974380D02*
X141441335Y-50572136D01*
X141441335Y-50572136D02*
X141307788Y-50772457D01*
X141307788Y-50772457D02*
X141174241Y-50906004D01*
X141174241Y-50906004D02*
X141040694Y-50972777D01*
X142676174Y-54206639D02*
X143743825Y-54206639D01*
X143209999Y-54740464D02*
X143209999Y-53672813D01*
X142404761Y-65750057D02*
X142309523Y-65702438D01*
X142309523Y-65702438D02*
X142214285Y-65607200D01*
X142214285Y-65607200D02*
X142071428Y-65464342D01*
X142071428Y-65464342D02*
X141976190Y-65416723D01*
X141976190Y-65416723D02*
X141880952Y-65416723D01*
X141928571Y-65654819D02*
X141833333Y-65607200D01*
X141833333Y-65607200D02*
X141738095Y-65511961D01*
X141738095Y-65511961D02*
X141690476Y-65321485D01*
X141690476Y-65321485D02*
X141690476Y-64988152D01*
X141690476Y-64988152D02*
X141738095Y-64797676D01*
X141738095Y-64797676D02*
X141833333Y-64702438D01*
X141833333Y-64702438D02*
X141928571Y-64654819D01*
X141928571Y-64654819D02*
X142119047Y-64654819D01*
X142119047Y-64654819D02*
X142214285Y-64702438D01*
X142214285Y-64702438D02*
X142309523Y-64797676D01*
X142309523Y-64797676D02*
X142357142Y-64988152D01*
X142357142Y-64988152D02*
X142357142Y-65321485D01*
X142357142Y-65321485D02*
X142309523Y-65511961D01*
X142309523Y-65511961D02*
X142214285Y-65607200D01*
X142214285Y-65607200D02*
X142119047Y-65654819D01*
X142119047Y-65654819D02*
X141928571Y-65654819D01*
X143309523Y-65654819D02*
X142738095Y-65654819D01*
X143023809Y-65654819D02*
X143023809Y-64654819D01*
X143023809Y-64654819D02*
X142928571Y-64797676D01*
X142928571Y-64797676D02*
X142833333Y-64892914D01*
X142833333Y-64892914D02*
X142738095Y-64940533D01*
D13*
%TO.C,Vin1*%
X120740000Y-83540000D02*
G75*
G02*
X119340000Y-83540000I-700000J0D01*
G01*
X119340000Y-83540000D02*
G75*
G02*
X120740000Y-83540000I700000J0D01*
G01*
%TO.C,GND1*%
X140910000Y-84850000D02*
G75*
G02*
X139510000Y-84850000I-700000J0D01*
G01*
X139510000Y-84850000D02*
G75*
G02*
X140910000Y-84850000I700000J0D01*
G01*
%TO.C,3.3V1*%
X116620000Y-71750000D02*
G75*
G02*
X115220000Y-71750000I-700000J0D01*
G01*
X115220000Y-71750000D02*
G75*
G02*
X116620000Y-71750000I700000J0D01*
G01*
%TO.C,C2*%
X134189420Y-60150000D02*
X134470580Y-60150000D01*
X134189420Y-61170000D02*
X134470580Y-61170000D01*
%TO.C,R1*%
X141017258Y-62997500D02*
X140542742Y-62997500D01*
X141017258Y-64042500D02*
X140542742Y-64042500D01*
%TO.C,R8*%
X147752742Y-72157500D02*
X148227258Y-72157500D01*
X147752742Y-73202500D02*
X148227258Y-73202500D01*
%TO.C,J2*%
X134260000Y-54970000D02*
X134260000Y-50610000D01*
X134260000Y-54970000D02*
X131760000Y-54970000D01*
X131760000Y-54970000D02*
X131760000Y-55170000D01*
X131100000Y-55170000D02*
X131760000Y-55170000D01*
X128240000Y-54970000D02*
X125740000Y-54970000D01*
X125740000Y-54970000D02*
X125740000Y-50610000D01*
%TO.C,R6*%
X144167258Y-61082500D02*
X143692742Y-61082500D01*
X144167258Y-60037500D02*
X143692742Y-60037500D01*
%TO.C,Q2*%
X142510000Y-73560000D02*
X141860000Y-73560000D01*
X142510000Y-73560000D02*
X143160000Y-73560000D01*
X142510000Y-76680000D02*
X141860000Y-76680000D01*
X142510000Y-76680000D02*
X143160000Y-76680000D01*
X141347500Y-73610000D02*
X141107500Y-73280000D01*
X141587500Y-73280000D01*
X141347500Y-73610000D01*
G36*
X141347500Y-73610000D02*
G01*
X141107500Y-73280000D01*
X141587500Y-73280000D01*
X141347500Y-73610000D01*
G37*
%TO.C,D2*%
X112795000Y-58640000D02*
X112795000Y-60560000D01*
X112795000Y-60560000D02*
X115480000Y-60560000D01*
X115480000Y-58640000D02*
X112795000Y-58640000D01*
%TO.C,C3*%
X119859420Y-68470000D02*
X120140580Y-68470000D01*
X119859420Y-69490000D02*
X120140580Y-69490000D01*
%TO.C,C4*%
X119859420Y-65750000D02*
X120140580Y-65750000D01*
X119859420Y-66770000D02*
X120140580Y-66770000D01*
%TO.C,R5*%
X119817258Y-73082500D02*
X119342742Y-73082500D01*
X119817258Y-72037500D02*
X119342742Y-72037500D01*
%TO.C,U1*%
X123300000Y-62340000D02*
X123060000Y-62010000D01*
X123540000Y-62010000D01*
X123300000Y-62340000D01*
G36*
X123300000Y-62340000D02*
G01*
X123060000Y-62010000D01*
X123540000Y-62010000D01*
X123300000Y-62340000D01*
G37*
X136210000Y-77660000D02*
X136210000Y-78100000D01*
X136210000Y-70260000D02*
X136210000Y-71940000D01*
X136210000Y-61890000D02*
X136210000Y-62340000D01*
X123790000Y-78110000D02*
X136210000Y-78110000D01*
X123790000Y-77660000D02*
X123790000Y-78110000D01*
X123790000Y-70260000D02*
X123790000Y-71940000D01*
X123790000Y-61890000D02*
X136210000Y-61890000D01*
X123790000Y-61890000D02*
X123790000Y-62340000D01*
%TO.C,Pwr1*%
X146360000Y-80915000D02*
X146360000Y-82385000D01*
X146360000Y-82385000D02*
X148820000Y-82385000D01*
X148820000Y-80915000D02*
X146360000Y-80915000D01*
%TO.C,C6*%
X112610580Y-68460000D02*
X112329420Y-68460000D01*
X112610580Y-69480000D02*
X112329420Y-69480000D01*
%TO.C,R4*%
X144722742Y-72147500D02*
X145197258Y-72147500D01*
X144722742Y-73192500D02*
X145197258Y-73192500D01*
%TO.C,L1*%
X119407221Y-73850000D02*
X119732779Y-73850000D01*
X119407221Y-74870000D02*
X119732779Y-74870000D01*
%TO.C,D3*%
X146065000Y-59620000D02*
X146065000Y-61540000D01*
X146065000Y-61540000D02*
X148750000Y-61540000D01*
X148750000Y-59620000D02*
X146065000Y-59620000D01*
%TO.C,R3*%
X144682742Y-64637500D02*
X145157258Y-64637500D01*
X144682742Y-65682500D02*
X145157258Y-65682500D01*
%TO.C,R2*%
X141017258Y-70357500D02*
X140542742Y-70357500D01*
X141017258Y-71402500D02*
X140542742Y-71402500D01*
%TO.C,C1*%
X118580000Y-78799420D02*
X118580000Y-79080580D01*
X119600000Y-78799420D02*
X119600000Y-79080580D01*
%TO.C,PPS1*%
X146360000Y-77885000D02*
X146360000Y-79355000D01*
X146360000Y-79355000D02*
X148820000Y-79355000D01*
X148820000Y-77885000D02*
X146360000Y-77885000D01*
D14*
%TO.C,J1*%
X112830000Y-77270000D02*
X112830000Y-74670000D01*
X115670000Y-75150000D02*
X115670000Y-74670000D01*
X115670000Y-76790000D02*
X115670000Y-77270000D01*
D15*
X116950000Y-75970000D02*
G75*
G02*
X116750000Y-75970000I-100000J0D01*
G01*
X116750000Y-75970000D02*
G75*
G02*
X116950000Y-75970000I100000J0D01*
G01*
D13*
%TO.C,U2*%
X121480000Y-54287500D02*
X120680000Y-54287500D01*
X121480000Y-54287500D02*
X122280000Y-54287500D01*
X121480000Y-57407500D02*
X120680000Y-57407500D01*
X121480000Y-57407500D02*
X122280000Y-57407500D01*
X120180000Y-54337500D02*
X119940000Y-54007500D01*
X120420000Y-54007500D01*
X120180000Y-54337500D01*
G36*
X120180000Y-54337500D02*
G01*
X119940000Y-54007500D01*
X120420000Y-54007500D01*
X120180000Y-54337500D01*
G37*
%TO.C,C5*%
X112610580Y-65750000D02*
X112329420Y-65750000D01*
X112610580Y-66770000D02*
X112329420Y-66770000D01*
%TO.C,D1*%
X115500000Y-62120000D02*
X112815000Y-62120000D01*
X112815000Y-64040000D02*
X115500000Y-64040000D01*
X112815000Y-62120000D02*
X112815000Y-64040000D01*
%TO.C,R7*%
X147732742Y-74987500D02*
X148207258Y-74987500D01*
X147732742Y-76032500D02*
X148207258Y-76032500D01*
%TO.C,Q3*%
X142500000Y-78990000D02*
X141850000Y-78990000D01*
X142500000Y-78990000D02*
X143150000Y-78990000D01*
X142500000Y-82110000D02*
X141850000Y-82110000D01*
X142500000Y-82110000D02*
X143150000Y-82110000D01*
X141337500Y-79040000D02*
X141097500Y-78710000D01*
X141577500Y-78710000D01*
X141337500Y-79040000D01*
G36*
X141337500Y-79040000D02*
G01*
X141097500Y-78710000D01*
X141577500Y-78710000D01*
X141337500Y-79040000D01*
G37*
%TO.C,U3*%
X116300000Y-65752500D02*
X115500000Y-65752500D01*
X116300000Y-65752500D02*
X117100000Y-65752500D01*
X116300000Y-68872500D02*
X115500000Y-68872500D01*
X116300000Y-68872500D02*
X117100000Y-68872500D01*
X117840000Y-69152500D02*
X117360000Y-69152500D01*
X117600000Y-68822500D01*
X117840000Y-69152500D01*
G36*
X117840000Y-69152500D02*
G01*
X117360000Y-69152500D01*
X117600000Y-68822500D01*
X117840000Y-69152500D01*
G37*
%TO.C,J3*%
X122090000Y-87310000D02*
X122090000Y-89810000D01*
X122090000Y-89810000D02*
X124590000Y-89810000D01*
X122390000Y-85490000D02*
X122390000Y-89510000D01*
X122390000Y-87200000D02*
X122890000Y-87200000D01*
X122390000Y-88010000D02*
X123390000Y-88010000D01*
X122390000Y-89510000D02*
X137610000Y-89510000D01*
X122890000Y-85990000D02*
X137110000Y-85990000D01*
X122890000Y-87200000D02*
X122890000Y-85990000D01*
X123390000Y-88010000D02*
X123390000Y-89510000D01*
X136610000Y-88010000D02*
X136610000Y-89510000D01*
X137110000Y-85990000D02*
X137110000Y-87200000D01*
X137110000Y-87200000D02*
X137610000Y-87200000D01*
X137610000Y-85490000D02*
X122390000Y-85490000D01*
X137610000Y-88010000D02*
X136610000Y-88010000D01*
X137610000Y-89510000D02*
X137610000Y-85490000D01*
D14*
%TO.C,BT1*%
X137820000Y-57679999D02*
G75*
G02*
X139630000Y-53640000I1741712J1645136D01*
G01*
X141980000Y-55823000D02*
G75*
G02*
X141830000Y-56870000I-3043933J-98151D01*
G01*
D13*
%TO.C,Q1*%
X142500000Y-66040000D02*
X141850000Y-66040000D01*
X142500000Y-66040000D02*
X143150000Y-66040000D01*
X142500000Y-69160000D02*
X141850000Y-69160000D01*
X142500000Y-69160000D02*
X143150000Y-69160000D01*
X141337500Y-66090000D02*
X141097500Y-65760000D01*
X141577500Y-65760000D01*
X141337500Y-66090000D01*
G36*
X141337500Y-66090000D02*
G01*
X141097500Y-65760000D01*
X141577500Y-65760000D01*
X141337500Y-66090000D01*
G37*
%TD*%
M02*
