%TF.GenerationSoftware,KiCad,Pcbnew,8.0.6*%
%TF.CreationDate,2024-10-28T16:54:00-06:00*%
%TF.ProjectId,GPS Module,47505320-4d6f-4647-956c-652e6b696361,rev?*%
%TF.SameCoordinates,Original*%
%TF.FileFunction,Copper,L2,Bot*%
%TF.FilePolarity,Positive*%
%FSLAX46Y46*%
G04 Gerber Fmt 4.6, Leading zero omitted, Abs format (unit mm)*
G04 Created by KiCad (PCBNEW 8.0.6) date 2024-10-28 16:54:00*
%MOMM*%
%LPD*%
G01*
G04 APERTURE LIST*
G04 Aperture macros list*
%AMRoundRect*
0 Rectangle with rounded corners*
0 $1 Rounding radius*
0 $2 $3 $4 $5 $6 $7 $8 $9 X,Y pos of 4 corners*
0 Add a 4 corners polygon primitive as box body*
4,1,4,$2,$3,$4,$5,$6,$7,$8,$9,$2,$3,0*
0 Add four circle primitives for the rounded corners*
1,1,$1+$1,$2,$3*
1,1,$1+$1,$4,$5*
1,1,$1+$1,$6,$7*
1,1,$1+$1,$8,$9*
0 Add four rect primitives between the rounded corners*
20,1,$1+$1,$2,$3,$4,$5,0*
20,1,$1+$1,$4,$5,$6,$7,0*
20,1,$1+$1,$6,$7,$8,$9,0*
20,1,$1+$1,$8,$9,$2,$3,0*%
G04 Aperture macros list end*
%TA.AperFunction,ComponentPad*%
%ADD10C,2.900000*%
%TD*%
%TA.AperFunction,ComponentPad*%
%ADD11O,0.900000X1.600000*%
%TD*%
%TA.AperFunction,ComponentPad*%
%ADD12RoundRect,0.250000X-0.600000X-0.725000X0.600000X-0.725000X0.600000X0.725000X-0.600000X0.725000X0*%
%TD*%
%TA.AperFunction,ComponentPad*%
%ADD13O,1.700000X1.950000*%
%TD*%
%TA.AperFunction,ViaPad*%
%ADD14C,0.600000*%
%TD*%
%TA.AperFunction,Conductor*%
%ADD15C,0.200000*%
%TD*%
%TA.AperFunction,Conductor*%
%ADD16C,0.508000*%
%TD*%
G04 APERTURE END LIST*
D10*
%TO.P,REF\u002A\u002A,1*%
%TO.N,N/C*%
X113000000Y-87000000D03*
%TD*%
D11*
%TO.P,J2,6,Shield*%
%TO.N,unconnected-(J2-Shield-Pad6)*%
X126700000Y-51560000D03*
X133300000Y-51560000D03*
%TD*%
D10*
%TO.P,REF\u002A\u002A,1*%
%TO.N,N/C*%
X113000000Y-53000000D03*
%TD*%
%TO.P,REF\u002A\u002A,1*%
%TO.N,N/C*%
X147000000Y-87000000D03*
%TD*%
%TO.P,REF\u002A\u002A,1*%
%TO.N,N/C*%
X147000000Y-53000000D03*
%TD*%
D12*
%TO.P,J3,1,Pin_1*%
%TO.N,Net-(D1-A)*%
X125000000Y-87200000D03*
D13*
%TO.P,J3,2,Pin_2*%
%TO.N,GPSTxd5V*%
X127500000Y-87200000D03*
%TO.P,J3,3,Pin_3*%
%TO.N,GPSRxd5V*%
X130000000Y-87200000D03*
%TO.P,J3,4,Pin_4*%
%TO.N,PPS*%
X132500000Y-87200000D03*
%TO.P,J3,5,Pin_5*%
%TO.N,GND*%
X135000000Y-87200000D03*
%TD*%
D14*
%TO.N,GND*%
X118410000Y-88070000D03*
X112710000Y-82720000D03*
X138680000Y-81980000D03*
X131420000Y-82690000D03*
X128110000Y-80320000D03*
X120910000Y-80300000D03*
X135990000Y-80370000D03*
X120890000Y-63800000D03*
%TO.N,PPS*%
X122080000Y-64770000D03*
%TO.N,GPSTxd5V*%
X145760000Y-66530000D03*
%TO.N,GPSRxd5V*%
X145270000Y-74250000D03*
%TO.N,GND*%
X140190000Y-59460000D03*
X111670000Y-64960000D03*
%TO.N,Net-(D1-A)*%
X116730000Y-63080000D03*
%TO.N,GND*%
X128020000Y-55420000D03*
X119080000Y-55860000D03*
%TD*%
D15*
%TO.N,unconnected-(J2-Shield-Pad6)*%
X133300000Y-51560000D02*
X126700000Y-51560000D01*
%TO.N,PPS*%
X126480000Y-88850000D02*
X130850000Y-88850000D01*
X130850000Y-88850000D02*
X132500000Y-87200000D01*
X126150000Y-88520000D02*
X126480000Y-88850000D01*
X126150000Y-68840000D02*
X126150000Y-88520000D01*
X122080000Y-64770000D02*
X126150000Y-68840000D01*
%TO.N,GPSTxd5V*%
X127500000Y-84104314D02*
X127500000Y-87200000D01*
X145074314Y-66530000D02*
X127500000Y-84104314D01*
X145760000Y-66530000D02*
X145074314Y-66530000D01*
%TO.N,GPSRxd5V*%
X137920000Y-74250000D02*
X130000000Y-82170000D01*
X145270000Y-74250000D02*
X137920000Y-74250000D01*
X130000000Y-82170000D02*
X130000000Y-87200000D01*
D16*
%TO.N,Net-(D1-A)*%
X125000000Y-71360000D02*
X125000000Y-87200000D01*
X116730000Y-63090000D02*
X125000000Y-71360000D01*
D15*
X116730000Y-63080000D02*
X116730000Y-63090000D01*
%TD*%
%TA.AperFunction,Conductor*%
%TO.N,GND*%
G36*
X125865967Y-50520185D02*
G01*
X125911722Y-50572989D01*
X125921666Y-50642147D01*
X125902030Y-50693391D01*
X125857681Y-50759762D01*
X125857676Y-50759771D01*
X125786027Y-50932748D01*
X125786025Y-50932756D01*
X125749500Y-51116379D01*
X125749500Y-52003620D01*
X125786025Y-52187243D01*
X125786027Y-52187251D01*
X125857676Y-52360228D01*
X125857681Y-52360237D01*
X125961697Y-52515907D01*
X125961700Y-52515911D01*
X126094088Y-52648299D01*
X126094092Y-52648302D01*
X126249762Y-52752318D01*
X126249768Y-52752321D01*
X126249769Y-52752322D01*
X126422749Y-52823973D01*
X126606379Y-52860499D01*
X126606383Y-52860500D01*
X126606384Y-52860500D01*
X126793617Y-52860500D01*
X126793618Y-52860499D01*
X126977251Y-52823973D01*
X127150231Y-52752322D01*
X127305908Y-52648302D01*
X127438302Y-52515908D01*
X127542322Y-52360231D01*
X127593347Y-52237047D01*
X127637188Y-52182644D01*
X127703482Y-52160579D01*
X127707908Y-52160500D01*
X132292092Y-52160500D01*
X132359131Y-52180185D01*
X132404886Y-52232989D01*
X132406653Y-52237047D01*
X132457676Y-52360227D01*
X132457681Y-52360237D01*
X132561697Y-52515907D01*
X132561700Y-52515911D01*
X132694088Y-52648299D01*
X132694092Y-52648302D01*
X132849762Y-52752318D01*
X132849768Y-52752321D01*
X132849769Y-52752322D01*
X133022749Y-52823973D01*
X133206379Y-52860499D01*
X133206383Y-52860500D01*
X133206384Y-52860500D01*
X133393617Y-52860500D01*
X133393618Y-52860499D01*
X133577251Y-52823973D01*
X133750231Y-52752322D01*
X133905908Y-52648302D01*
X134038302Y-52515908D01*
X134142322Y-52360231D01*
X134213973Y-52187251D01*
X134250500Y-52003616D01*
X134250500Y-51116384D01*
X134213973Y-50932749D01*
X134142322Y-50759769D01*
X134142321Y-50759768D01*
X134142318Y-50759762D01*
X134097970Y-50693391D01*
X134077092Y-50626714D01*
X134095576Y-50559333D01*
X134147555Y-50512643D01*
X134201072Y-50500500D01*
X149375500Y-50500500D01*
X149442539Y-50520185D01*
X149488294Y-50572989D01*
X149499500Y-50624500D01*
X149499500Y-89375500D01*
X149479815Y-89442539D01*
X149427011Y-89488294D01*
X149375500Y-89499500D01*
X131349099Y-89499500D01*
X131282060Y-89479815D01*
X131236305Y-89427011D01*
X131226361Y-89357853D01*
X131255386Y-89294297D01*
X131261417Y-89287819D01*
X131261418Y-89287818D01*
X131330520Y-89218716D01*
X131330520Y-89218714D01*
X131340728Y-89208507D01*
X131340730Y-89208504D01*
X131921133Y-88628100D01*
X131982454Y-88594617D01*
X132047126Y-88597851D01*
X132183757Y-88642246D01*
X132393713Y-88675500D01*
X132393714Y-88675500D01*
X132606286Y-88675500D01*
X132606287Y-88675500D01*
X132816243Y-88642246D01*
X133018412Y-88576557D01*
X133207816Y-88480051D01*
X133229789Y-88464086D01*
X133379786Y-88355109D01*
X133379788Y-88355106D01*
X133379792Y-88355104D01*
X133530104Y-88204792D01*
X133649991Y-88039779D01*
X133705320Y-87997115D01*
X133774933Y-87991136D01*
X133836729Y-88023741D01*
X133850627Y-88039781D01*
X133970272Y-88204459D01*
X133970276Y-88204464D01*
X134120535Y-88354723D01*
X134120540Y-88354727D01*
X134292442Y-88479620D01*
X134481782Y-88576095D01*
X134683871Y-88641757D01*
X134750000Y-88652231D01*
X134750000Y-87604145D01*
X134816657Y-87642630D01*
X134937465Y-87675000D01*
X135062535Y-87675000D01*
X135183343Y-87642630D01*
X135250000Y-87604145D01*
X135250000Y-88652230D01*
X135316126Y-88641757D01*
X135316129Y-88641757D01*
X135518217Y-88576095D01*
X135707557Y-88479620D01*
X135879459Y-88354727D01*
X135879464Y-88354723D01*
X136029723Y-88204464D01*
X136029727Y-88204459D01*
X136154620Y-88032557D01*
X136251095Y-87843217D01*
X136316757Y-87641130D01*
X136316757Y-87641127D01*
X136347030Y-87450000D01*
X135404146Y-87450000D01*
X135442630Y-87383343D01*
X135475000Y-87262535D01*
X135475000Y-87137465D01*
X135442630Y-87016657D01*
X135433012Y-86999998D01*
X145044518Y-86999998D01*
X145044518Y-87000001D01*
X145064422Y-87278299D01*
X145101774Y-87450000D01*
X145123729Y-87550923D01*
X145157934Y-87642630D01*
X145221231Y-87812338D01*
X145221233Y-87812342D01*
X145354940Y-88057207D01*
X145354945Y-88057215D01*
X145522138Y-88280560D01*
X145522154Y-88280578D01*
X145719421Y-88477845D01*
X145719439Y-88477861D01*
X145942784Y-88645054D01*
X145942792Y-88645059D01*
X146187657Y-88778766D01*
X146187661Y-88778768D01*
X146187663Y-88778769D01*
X146449077Y-88876271D01*
X146585391Y-88905924D01*
X146721700Y-88935577D01*
X146721702Y-88935577D01*
X146721706Y-88935578D01*
X146969014Y-88953265D01*
X146999999Y-88955482D01*
X147000000Y-88955482D01*
X147000001Y-88955482D01*
X147027881Y-88953487D01*
X147278294Y-88935578D01*
X147550923Y-88876271D01*
X147812337Y-88778769D01*
X148057213Y-88645056D01*
X148280568Y-88477855D01*
X148477855Y-88280568D01*
X148645056Y-88057213D01*
X148778769Y-87812337D01*
X148876271Y-87550923D01*
X148935578Y-87278294D01*
X148955482Y-87000000D01*
X148935578Y-86721706D01*
X148876271Y-86449077D01*
X148778769Y-86187663D01*
X148761298Y-86155668D01*
X148645059Y-85942792D01*
X148645054Y-85942784D01*
X148477861Y-85719439D01*
X148477845Y-85719421D01*
X148280578Y-85522154D01*
X148280560Y-85522138D01*
X148057215Y-85354945D01*
X148057207Y-85354940D01*
X147812342Y-85221233D01*
X147812338Y-85221231D01*
X147713230Y-85184266D01*
X147550923Y-85123729D01*
X147550919Y-85123728D01*
X147550916Y-85123727D01*
X147278299Y-85064422D01*
X147000001Y-85044518D01*
X146999999Y-85044518D01*
X146721700Y-85064422D01*
X146449083Y-85123727D01*
X146449078Y-85123728D01*
X146449077Y-85123729D01*
X146385875Y-85147301D01*
X146187661Y-85221231D01*
X146187657Y-85221233D01*
X145942792Y-85354940D01*
X145942784Y-85354945D01*
X145719439Y-85522138D01*
X145719421Y-85522154D01*
X145522154Y-85719421D01*
X145522138Y-85719439D01*
X145354945Y-85942784D01*
X145354940Y-85942792D01*
X145221233Y-86187657D01*
X145221231Y-86187661D01*
X145123727Y-86449083D01*
X145064422Y-86721700D01*
X145044518Y-86999998D01*
X135433012Y-86999998D01*
X135404146Y-86950000D01*
X136347030Y-86950000D01*
X136316757Y-86758872D01*
X136316757Y-86758869D01*
X136251095Y-86556782D01*
X136154620Y-86367442D01*
X136029727Y-86195540D01*
X136029723Y-86195535D01*
X135879464Y-86045276D01*
X135879459Y-86045272D01*
X135707557Y-85920379D01*
X135518215Y-85823903D01*
X135316124Y-85758241D01*
X135250000Y-85747768D01*
X135250000Y-86795854D01*
X135183343Y-86757370D01*
X135062535Y-86725000D01*
X134937465Y-86725000D01*
X134816657Y-86757370D01*
X134750000Y-86795854D01*
X134750000Y-85747768D01*
X134749999Y-85747768D01*
X134683875Y-85758241D01*
X134481784Y-85823903D01*
X134292442Y-85920379D01*
X134120540Y-86045272D01*
X134120535Y-86045276D01*
X133970276Y-86195535D01*
X133970272Y-86195540D01*
X133850627Y-86360218D01*
X133795297Y-86402884D01*
X133725684Y-86408863D01*
X133663889Y-86376257D01*
X133649991Y-86360218D01*
X133530109Y-86195214D01*
X133530105Y-86195209D01*
X133379786Y-86044890D01*
X133207820Y-85919951D01*
X133018414Y-85823444D01*
X133018413Y-85823443D01*
X133018412Y-85823443D01*
X132816243Y-85757754D01*
X132816241Y-85757753D01*
X132816240Y-85757753D01*
X132654957Y-85732208D01*
X132606287Y-85724500D01*
X132393713Y-85724500D01*
X132345042Y-85732208D01*
X132183760Y-85757753D01*
X131981585Y-85823444D01*
X131792179Y-85919951D01*
X131620213Y-86044890D01*
X131469894Y-86195209D01*
X131469890Y-86195214D01*
X131350318Y-86359793D01*
X131294989Y-86402459D01*
X131225375Y-86408438D01*
X131163580Y-86375833D01*
X131149682Y-86359793D01*
X131030109Y-86195214D01*
X131030105Y-86195209D01*
X130879786Y-86044890D01*
X130707815Y-85919948D01*
X130707814Y-85919947D01*
X130668205Y-85899765D01*
X130617409Y-85851791D01*
X130600500Y-85789281D01*
X130600500Y-82470097D01*
X130620185Y-82403058D01*
X130636819Y-82382416D01*
X138132416Y-74886819D01*
X138193739Y-74853334D01*
X138220097Y-74850500D01*
X144590162Y-74850500D01*
X144607877Y-74851771D01*
X144731470Y-74869613D01*
X144779722Y-74887346D01*
X144920478Y-74975789D01*
X145090745Y-75035368D01*
X145090750Y-75035369D01*
X145269996Y-75055565D01*
X145270000Y-75055565D01*
X145270004Y-75055565D01*
X145449249Y-75035369D01*
X145449252Y-75035368D01*
X145449255Y-75035368D01*
X145619522Y-74975789D01*
X145772262Y-74879816D01*
X145899816Y-74752262D01*
X145995789Y-74599522D01*
X146055368Y-74429255D01*
X146075565Y-74250000D01*
X146055368Y-74070745D01*
X145995789Y-73900478D01*
X145899816Y-73747738D01*
X145772262Y-73620184D01*
X145703553Y-73577011D01*
X145619523Y-73524211D01*
X145449254Y-73464631D01*
X145449249Y-73464630D01*
X145270004Y-73444435D01*
X145269996Y-73444435D01*
X145090750Y-73464630D01*
X145090745Y-73464631D01*
X144920476Y-73524211D01*
X144779728Y-73612650D01*
X144731474Y-73630384D01*
X144700486Y-73634857D01*
X144607864Y-73648228D01*
X144590158Y-73649500D01*
X139103411Y-73649500D01*
X139036372Y-73629815D01*
X138990617Y-73577011D01*
X138980673Y-73507853D01*
X139009698Y-73444297D01*
X139015730Y-73437819D01*
X139209767Y-73243780D01*
X145209921Y-67243626D01*
X145271242Y-67210143D01*
X145340934Y-67215127D01*
X145363566Y-67226312D01*
X145410476Y-67255788D01*
X145410478Y-67255789D01*
X145580745Y-67315368D01*
X145580750Y-67315369D01*
X145759996Y-67335565D01*
X145760000Y-67335565D01*
X145760004Y-67335565D01*
X145939249Y-67315369D01*
X145939252Y-67315368D01*
X145939255Y-67315368D01*
X146109522Y-67255789D01*
X146262262Y-67159816D01*
X146389816Y-67032262D01*
X146485789Y-66879522D01*
X146545368Y-66709255D01*
X146565565Y-66530000D01*
X146545368Y-66350745D01*
X146485789Y-66180478D01*
X146389816Y-66027738D01*
X146262262Y-65900184D01*
X146250272Y-65892650D01*
X146109523Y-65804211D01*
X145939254Y-65744631D01*
X145939249Y-65744630D01*
X145760004Y-65724435D01*
X145759996Y-65724435D01*
X145580750Y-65744630D01*
X145580745Y-65744631D01*
X145410476Y-65804211D01*
X145269728Y-65892650D01*
X145221474Y-65910384D01*
X145190486Y-65914857D01*
X145097864Y-65928228D01*
X145080158Y-65929500D01*
X144995256Y-65929500D01*
X144842529Y-65970423D01*
X144842528Y-65970423D01*
X144842526Y-65970424D01*
X144842523Y-65970425D01*
X144807380Y-65990716D01*
X144807378Y-65990717D01*
X144705604Y-66049475D01*
X144705596Y-66049481D01*
X127019481Y-83735596D01*
X127019477Y-83735601D01*
X126981887Y-83800711D01*
X126931321Y-83848926D01*
X126862714Y-83862150D01*
X126797849Y-83836182D01*
X126757320Y-83779268D01*
X126750500Y-83738711D01*
X126750500Y-68760945D01*
X126750500Y-68760943D01*
X126709577Y-68608216D01*
X126709577Y-68608215D01*
X126709577Y-68608214D01*
X126680639Y-68558095D01*
X126680637Y-68558092D01*
X126630520Y-68471284D01*
X126518716Y-68359480D01*
X126518715Y-68359479D01*
X126514385Y-68355149D01*
X126514374Y-68355139D01*
X122910700Y-64751465D01*
X122877215Y-64690142D01*
X122875163Y-64677686D01*
X122865368Y-64590745D01*
X122805789Y-64420478D01*
X122709816Y-64267738D01*
X122582262Y-64140184D01*
X122429523Y-64044211D01*
X122259254Y-63984631D01*
X122259249Y-63984630D01*
X122080004Y-63964435D01*
X122079996Y-63964435D01*
X121900750Y-63984630D01*
X121900745Y-63984631D01*
X121730476Y-64044211D01*
X121577737Y-64140184D01*
X121450184Y-64267737D01*
X121354211Y-64420476D01*
X121294631Y-64590745D01*
X121294630Y-64590750D01*
X121274435Y-64769996D01*
X121274435Y-64770003D01*
X121294630Y-64949249D01*
X121294631Y-64949254D01*
X121354211Y-65119523D01*
X121450184Y-65272262D01*
X121577738Y-65399816D01*
X121730478Y-65495789D01*
X121900745Y-65555368D01*
X121987669Y-65565161D01*
X122052080Y-65592226D01*
X122061465Y-65600700D01*
X125513181Y-69052416D01*
X125546666Y-69113739D01*
X125549500Y-69140097D01*
X125549500Y-70543113D01*
X125529815Y-70610152D01*
X125477011Y-70655907D01*
X125407853Y-70665851D01*
X125344297Y-70636826D01*
X125337819Y-70630794D01*
X117485644Y-62778619D01*
X117459215Y-62736556D01*
X117458810Y-62736752D01*
X117457075Y-62733149D01*
X117456282Y-62731887D01*
X117455789Y-62730478D01*
X117359816Y-62577738D01*
X117232262Y-62450184D01*
X117079523Y-62354211D01*
X116909254Y-62294631D01*
X116909249Y-62294630D01*
X116730004Y-62274435D01*
X116729996Y-62274435D01*
X116550750Y-62294630D01*
X116550745Y-62294631D01*
X116380476Y-62354211D01*
X116227737Y-62450184D01*
X116100184Y-62577737D01*
X116004211Y-62730476D01*
X115944631Y-62900745D01*
X115944630Y-62900750D01*
X115924435Y-63079996D01*
X115924435Y-63080003D01*
X115944630Y-63259249D01*
X115944631Y-63259254D01*
X116004211Y-63429523D01*
X116100184Y-63582262D01*
X116227738Y-63709816D01*
X116364039Y-63795459D01*
X116385746Y-63812771D01*
X124209181Y-71636205D01*
X124242666Y-71697528D01*
X124245500Y-71723886D01*
X124245500Y-85646024D01*
X124225815Y-85713063D01*
X124173011Y-85758818D01*
X124160508Y-85763728D01*
X124083397Y-85789281D01*
X124080666Y-85790186D01*
X124080663Y-85790187D01*
X123931342Y-85882289D01*
X123807289Y-86006342D01*
X123715187Y-86155663D01*
X123715186Y-86155666D01*
X123660001Y-86322203D01*
X123660001Y-86322204D01*
X123660000Y-86322204D01*
X123649500Y-86424983D01*
X123649500Y-87975001D01*
X123649501Y-87975018D01*
X123660000Y-88077796D01*
X123660001Y-88077799D01*
X123701973Y-88204459D01*
X123715186Y-88244334D01*
X123807288Y-88393656D01*
X123931344Y-88517712D01*
X124080666Y-88609814D01*
X124247203Y-88664999D01*
X124349991Y-88675500D01*
X125475970Y-88675499D01*
X125543009Y-88695184D01*
X125586090Y-88744901D01*
X125586359Y-88744746D01*
X125587164Y-88746141D01*
X125588764Y-88747987D01*
X125590400Y-88751745D01*
X125619358Y-88801900D01*
X125619359Y-88801904D01*
X125619360Y-88801904D01*
X125669479Y-88888714D01*
X125669481Y-88888717D01*
X125788349Y-89007585D01*
X125788355Y-89007590D01*
X125995139Y-89214374D01*
X125995149Y-89214385D01*
X125999479Y-89218715D01*
X125999480Y-89218716D01*
X126068584Y-89287820D01*
X126102068Y-89349141D01*
X126097084Y-89418833D01*
X126055213Y-89474767D01*
X125989749Y-89499184D01*
X125980902Y-89499500D01*
X110624500Y-89499500D01*
X110557461Y-89479815D01*
X110511706Y-89427011D01*
X110500500Y-89375500D01*
X110500500Y-86999998D01*
X111044518Y-86999998D01*
X111044518Y-87000001D01*
X111064422Y-87278299D01*
X111101774Y-87450000D01*
X111123729Y-87550923D01*
X111157934Y-87642630D01*
X111221231Y-87812338D01*
X111221233Y-87812342D01*
X111354940Y-88057207D01*
X111354945Y-88057215D01*
X111522138Y-88280560D01*
X111522154Y-88280578D01*
X111719421Y-88477845D01*
X111719439Y-88477861D01*
X111942784Y-88645054D01*
X111942792Y-88645059D01*
X112187657Y-88778766D01*
X112187661Y-88778768D01*
X112187663Y-88778769D01*
X112449077Y-88876271D01*
X112585391Y-88905924D01*
X112721700Y-88935577D01*
X112721702Y-88935577D01*
X112721706Y-88935578D01*
X112969014Y-88953265D01*
X112999999Y-88955482D01*
X113000000Y-88955482D01*
X113000001Y-88955482D01*
X113027881Y-88953487D01*
X113278294Y-88935578D01*
X113550923Y-88876271D01*
X113812337Y-88778769D01*
X114057213Y-88645056D01*
X114280568Y-88477855D01*
X114477855Y-88280568D01*
X114645056Y-88057213D01*
X114778769Y-87812337D01*
X114876271Y-87550923D01*
X114935578Y-87278294D01*
X114955482Y-87000000D01*
X114935578Y-86721706D01*
X114876271Y-86449077D01*
X114778769Y-86187663D01*
X114761298Y-86155668D01*
X114645059Y-85942792D01*
X114645054Y-85942784D01*
X114477861Y-85719439D01*
X114477845Y-85719421D01*
X114280578Y-85522154D01*
X114280560Y-85522138D01*
X114057215Y-85354945D01*
X114057207Y-85354940D01*
X113812342Y-85221233D01*
X113812338Y-85221231D01*
X113713230Y-85184266D01*
X113550923Y-85123729D01*
X113550919Y-85123728D01*
X113550916Y-85123727D01*
X113278299Y-85064422D01*
X113000001Y-85044518D01*
X112999999Y-85044518D01*
X112721700Y-85064422D01*
X112449083Y-85123727D01*
X112449078Y-85123728D01*
X112449077Y-85123729D01*
X112385875Y-85147301D01*
X112187661Y-85221231D01*
X112187657Y-85221233D01*
X111942792Y-85354940D01*
X111942784Y-85354945D01*
X111719439Y-85522138D01*
X111719421Y-85522154D01*
X111522154Y-85719421D01*
X111522138Y-85719439D01*
X111354945Y-85942784D01*
X111354940Y-85942792D01*
X111221233Y-86187657D01*
X111221231Y-86187661D01*
X111123727Y-86449083D01*
X111064422Y-86721700D01*
X111044518Y-86999998D01*
X110500500Y-86999998D01*
X110500500Y-52999998D01*
X111044518Y-52999998D01*
X111044518Y-53000001D01*
X111064422Y-53278299D01*
X111123727Y-53550916D01*
X111123729Y-53550923D01*
X111184266Y-53713230D01*
X111221231Y-53812338D01*
X111221233Y-53812342D01*
X111354940Y-54057207D01*
X111354945Y-54057215D01*
X111522138Y-54280560D01*
X111522154Y-54280578D01*
X111719421Y-54477845D01*
X111719439Y-54477861D01*
X111942784Y-54645054D01*
X111942792Y-54645059D01*
X112187657Y-54778766D01*
X112187661Y-54778768D01*
X112187663Y-54778769D01*
X112449077Y-54876271D01*
X112585391Y-54905924D01*
X112721700Y-54935577D01*
X112721702Y-54935577D01*
X112721706Y-54935578D01*
X112969014Y-54953265D01*
X112999999Y-54955482D01*
X113000000Y-54955482D01*
X113000001Y-54955482D01*
X113027881Y-54953487D01*
X113278294Y-54935578D01*
X113550923Y-54876271D01*
X113812337Y-54778769D01*
X114057213Y-54645056D01*
X114280568Y-54477855D01*
X114477855Y-54280568D01*
X114645056Y-54057213D01*
X114778769Y-53812337D01*
X114876271Y-53550923D01*
X114935578Y-53278294D01*
X114955482Y-53000000D01*
X114955482Y-52999998D01*
X145044518Y-52999998D01*
X145044518Y-53000001D01*
X145064422Y-53278299D01*
X145123727Y-53550916D01*
X145123729Y-53550923D01*
X145184266Y-53713230D01*
X145221231Y-53812338D01*
X145221233Y-53812342D01*
X145354940Y-54057207D01*
X145354945Y-54057215D01*
X145522138Y-54280560D01*
X145522154Y-54280578D01*
X145719421Y-54477845D01*
X145719439Y-54477861D01*
X145942784Y-54645054D01*
X145942792Y-54645059D01*
X146187657Y-54778766D01*
X146187661Y-54778768D01*
X146187663Y-54778769D01*
X146449077Y-54876271D01*
X146585391Y-54905924D01*
X146721700Y-54935577D01*
X146721702Y-54935577D01*
X146721706Y-54935578D01*
X146969014Y-54953265D01*
X146999999Y-54955482D01*
X147000000Y-54955482D01*
X147000001Y-54955482D01*
X147027881Y-54953487D01*
X147278294Y-54935578D01*
X147550923Y-54876271D01*
X147812337Y-54778769D01*
X148057213Y-54645056D01*
X148280568Y-54477855D01*
X148477855Y-54280568D01*
X148645056Y-54057213D01*
X148778769Y-53812337D01*
X148876271Y-53550923D01*
X148935578Y-53278294D01*
X148955482Y-53000000D01*
X148935578Y-52721706D01*
X148876271Y-52449077D01*
X148778769Y-52187663D01*
X148776028Y-52182644D01*
X148645059Y-51942792D01*
X148645054Y-51942784D01*
X148477861Y-51719439D01*
X148477845Y-51719421D01*
X148280578Y-51522154D01*
X148280560Y-51522138D01*
X148057215Y-51354945D01*
X148057207Y-51354940D01*
X147812342Y-51221233D01*
X147812338Y-51221231D01*
X147713230Y-51184266D01*
X147550923Y-51123729D01*
X147550919Y-51123728D01*
X147550916Y-51123727D01*
X147278299Y-51064422D01*
X147000001Y-51044518D01*
X146999999Y-51044518D01*
X146721700Y-51064422D01*
X146449083Y-51123727D01*
X146449078Y-51123728D01*
X146449077Y-51123729D01*
X146385875Y-51147301D01*
X146187661Y-51221231D01*
X146187657Y-51221233D01*
X145942792Y-51354940D01*
X145942784Y-51354945D01*
X145719439Y-51522138D01*
X145719421Y-51522154D01*
X145522154Y-51719421D01*
X145522138Y-51719439D01*
X145354945Y-51942784D01*
X145354940Y-51942792D01*
X145221233Y-52187657D01*
X145221231Y-52187661D01*
X145123727Y-52449083D01*
X145064422Y-52721700D01*
X145044518Y-52999998D01*
X114955482Y-52999998D01*
X114935578Y-52721706D01*
X114876271Y-52449077D01*
X114778769Y-52187663D01*
X114776028Y-52182644D01*
X114645059Y-51942792D01*
X114645054Y-51942784D01*
X114477861Y-51719439D01*
X114477845Y-51719421D01*
X114280578Y-51522154D01*
X114280560Y-51522138D01*
X114057215Y-51354945D01*
X114057207Y-51354940D01*
X113812342Y-51221233D01*
X113812338Y-51221231D01*
X113713230Y-51184266D01*
X113550923Y-51123729D01*
X113550919Y-51123728D01*
X113550916Y-51123727D01*
X113278299Y-51064422D01*
X113000001Y-51044518D01*
X112999999Y-51044518D01*
X112721700Y-51064422D01*
X112449083Y-51123727D01*
X112449078Y-51123728D01*
X112449077Y-51123729D01*
X112385875Y-51147301D01*
X112187661Y-51221231D01*
X112187657Y-51221233D01*
X111942792Y-51354940D01*
X111942784Y-51354945D01*
X111719439Y-51522138D01*
X111719421Y-51522154D01*
X111522154Y-51719421D01*
X111522138Y-51719439D01*
X111354945Y-51942784D01*
X111354940Y-51942792D01*
X111221233Y-52187657D01*
X111221231Y-52187661D01*
X111123727Y-52449083D01*
X111064422Y-52721700D01*
X111044518Y-52999998D01*
X110500500Y-52999998D01*
X110500500Y-50624500D01*
X110520185Y-50557461D01*
X110572989Y-50511706D01*
X110624500Y-50500500D01*
X125798928Y-50500500D01*
X125865967Y-50520185D01*
G37*
%TD.AperFunction*%
%TD*%
%TA.AperFunction,Conductor*%
%TO.N,GPSTxd5V*%
G36*
X145509894Y-66382086D02*
G01*
X145743886Y-66519919D01*
X145749275Y-66527071D01*
X145748029Y-66535938D01*
X145743886Y-66540081D01*
X145509894Y-66677913D01*
X145502284Y-66679412D01*
X145170028Y-66631447D01*
X145162330Y-66626873D01*
X145160000Y-66619867D01*
X145160000Y-66440132D01*
X145163427Y-66431859D01*
X145170027Y-66428552D01*
X145502285Y-66380587D01*
X145509894Y-66382086D01*
G37*
%TD.AperFunction*%
%TD*%
%TA.AperFunction,Conductor*%
%TO.N,GPSRxd5V*%
G36*
X145019894Y-74102086D02*
G01*
X145253886Y-74239919D01*
X145259275Y-74247071D01*
X145258029Y-74255938D01*
X145253886Y-74260081D01*
X145019894Y-74397913D01*
X145012284Y-74399412D01*
X144680028Y-74351447D01*
X144672330Y-74346873D01*
X144670000Y-74339867D01*
X144670000Y-74160132D01*
X144673427Y-74151859D01*
X144680027Y-74148552D01*
X145012285Y-74100587D01*
X145019894Y-74102086D01*
G37*
%TD.AperFunction*%
%TD*%
M02*
